<?xml version="1.0" encoding="UTF-8"?><svg id="_레이어_2" xmlns="http://www.w3.org/2000/svg" viewBox="0 0 422.487 422.487"><defs><style>.cls-1,.cls-2,.cls-3,.cls-4{fill:#b3b3b3;}.cls-1,.cls-5,.cls-6,.cls-7{stroke-width:0px;}.cls-8,.cls-2,.cls-9,.cls-10,.cls-11,.cls-12,.cls-13,.cls-14,.cls-15,.cls-3,.cls-4,.cls-16,.cls-17,.cls-18{stroke-linecap:round;stroke-linejoin:round;}.cls-8,.cls-9,.cls-11,.cls-13,.cls-15,.cls-16{stroke:gray;}.cls-8,.cls-11,.cls-5{fill:#ccc;}.cls-8,.cls-13,.cls-15{stroke-width:2.198px;}.cls-2{stroke-width:4.527px;}.cls-2,.cls-3,.cls-4{stroke:#b3b3b3;}.cls-9,.cls-11,.cls-19,.cls-16{stroke-width:3px;}.cls-9,.cls-13,.cls-6{fill:#fff;}.cls-10,.cls-12,.cls-14,.cls-19,.cls-18{fill:none;}.cls-10,.cls-12,.cls-14,.cls-18{stroke:#999;}.cls-10,.cls-3{stroke-width:9.054px;}.cls-12{stroke-width:5.414px;}.cls-14{stroke-width:8.122px;}.cls-15,.cls-16{fill:gray;}.cls-19{stroke:#666;stroke-miterlimit:10;}.cls-4{stroke-width:9.682px;}.cls-17{stroke:#e6e6e6;stroke-width:4px;}.cls-17,.cls-7{fill:#e6e6e6;}.cls-18{stroke-width:6.036px;}</style></defs><g id="_틀"><circle class="cls-6" cx="211.114" cy="211.243" r="169.465"/><path class="cls-17" d="M263.24,270.964c15.195-65.047,30.391-130.093,45.586-195.14-12.286-8.674-47.304-30.978-97.258-31.234-46.155-.236-79.345,18.481-92.256,26.707,15.548,66.556,31.096,133.111,46.643,199.667,0,0,97.284,0,97.284,0Z"/><path class="cls-5" d="M364.355,280.818c-102.074-.014-204.149-.028-306.223-.043,49.913,115.239,235.658,141.734,306.223.043Z"/><path class="cls-6" d="M318.266,327.046H105.183c-5.03,0-5.014-3.401.035-7.559l30.068-24.757c5.049-4.157,11.654-7.563,14.678-7.568l128.093-.216c3.024-.005,9.239,3.412,13.811,7.594l27.229,24.903c4.572,4.182,4.198,7.603-.832,7.603Z"/><path class="cls-19" d="M318.266,327.046H105.183c-5.03,0-5.014-3.401.035-7.559l30.068-24.757c5.049-4.157,11.654-7.563,14.678-7.568l128.093-.216c3.024-.005,9.239,3.412,13.811,7.594l27.229,24.903c4.572,4.182,4.198,7.603-.832,7.603Z"/><path class="cls-6" d="M318.266,326.953H105.183c-5.03,0-5.014-3.401.035-7.559l30.068-24.757c5.049-4.157,11.654-7.563,14.678-7.568l128.093-.216c3.024-.005,9.239,3.412,13.811,7.594l27.229,24.903c4.572,4.182,4.198,7.603-.832,7.603Z"/><path class="cls-19" d="M318.266,326.953H105.183c-5.03,0-5.014-3.401.035-7.559l30.068-24.757c5.049-4.157,11.654-7.563,14.678-7.568l128.093-.216c3.024-.005,9.239,3.412,13.811,7.594l27.229,24.903c4.572,4.182,4.198,7.603-.832,7.603Z"/><path class="cls-6" d="M318.266,326.859H105.183c-5.03,0-5.014-3.401.035-7.559l30.068-24.757c5.049-4.157,11.654-7.563,14.678-7.568l128.093-.216c3.024-.005,9.239,3.412,13.811,7.594l27.229,24.903c4.572,4.182,4.198,7.603-.832,7.603Z"/><path class="cls-19" d="M318.266,326.859H105.183c-5.03,0-5.014-3.401.035-7.559l30.068-24.757c5.049-4.157,11.654-7.563,14.678-7.568l128.093-.216c3.024-.005,9.239,3.412,13.811,7.594l27.229,24.903c4.572,4.182,4.198,7.603-.832,7.603Z"/><path class="cls-6" d="M318.266,326.766H105.183c-5.03,0-5.014-3.401.035-7.559l30.068-24.757c5.049-4.157,11.654-7.563,14.678-7.568l128.093-.216c3.024-.005,9.239,3.412,13.811,7.594l27.229,24.903c4.572,4.182,4.198,7.603-.832,7.603Z"/><path class="cls-19" d="M318.266,326.766H105.183c-5.03,0-5.014-3.401.035-7.559l30.068-24.757c5.049-4.157,11.654-7.563,14.678-7.568l128.093-.216c3.024-.005,9.239,3.412,13.811,7.594l27.229,24.903c4.572,4.182,4.198,7.603-.832,7.603Z"/><path class="cls-6" d="M318.266,326.673H105.183c-5.03,0-5.014-3.401.035-7.559l30.068-24.757c5.049-4.157,11.654-7.563,14.678-7.568l128.093-.216c3.024-.005,9.239,3.412,13.811,7.594l27.229,24.903c4.572,4.182,4.198,7.603-.832,7.603Z"/><path class="cls-19" d="M318.266,326.673H105.183c-5.03,0-5.014-3.401.035-7.559l30.068-24.757c5.049-4.157,11.654-7.563,14.678-7.568l128.093-.216c3.024-.005,9.239,3.412,13.811,7.594l27.229,24.903c4.572,4.182,4.198,7.603-.832,7.603Z"/><path class="cls-6" d="M318.266,326.58H105.183c-5.03,0-5.014-3.401.035-7.559l30.068-24.757c5.049-4.157,11.654-7.563,14.678-7.568l128.093-.216c3.024-.005,9.239,3.412,13.811,7.594l27.229,24.903c4.572,4.182,4.198,7.603-.832,7.603Z"/><path class="cls-19" d="M318.266,326.58H105.183c-5.03,0-5.014-3.401.035-7.559l30.068-24.757c5.049-4.157,11.654-7.563,14.678-7.568l128.093-.216c3.024-.005,9.239,3.412,13.811,7.594l27.229,24.903c4.572,4.182,4.198,7.603-.832,7.603Z"/><path class="cls-6" d="M318.266,326.486H105.183c-5.03,0-5.014-3.401.035-7.559l30.068-24.757c5.049-4.157,11.654-7.563,14.678-7.568l128.093-.216c3.024-.005,9.239,3.412,13.811,7.594l27.229,24.903c4.572,4.182,4.198,7.603-.832,7.603Z"/><path class="cls-19" d="M318.266,326.486H105.183c-5.03,0-5.014-3.401.035-7.559l30.068-24.757c5.049-4.157,11.654-7.563,14.678-7.568l128.093-.216c3.024-.005,9.239,3.412,13.811,7.594l27.229,24.903c4.572,4.182,4.198,7.603-.832,7.603Z"/><path class="cls-6" d="M318.266,326.393H105.183c-5.03,0-5.014-3.401.035-7.559l30.068-24.757c5.049-4.157,11.654-7.563,14.678-7.568l128.093-.216c3.024-.005,9.239,3.412,13.811,7.594l27.229,24.903c4.572,4.182,4.198,7.603-.832,7.603Z"/><path class="cls-19" d="M318.266,326.393H105.183c-5.03,0-5.014-3.401.035-7.559l30.068-24.757c5.049-4.157,11.654-7.563,14.678-7.568l128.093-.216c3.024-.005,9.239,3.412,13.811,7.594l27.229,24.903c4.572,4.182,4.198,7.603-.832,7.603Z"/><path class="cls-6" d="M318.266,326.3H105.183c-5.03,0-5.014-3.401.035-7.559l30.068-24.757c5.049-4.157,11.654-7.563,14.678-7.568l128.093-.216c3.024-.005,9.239,3.412,13.811,7.594l27.229,24.903c4.572,4.182,4.198,7.603-.832,7.603Z"/><path class="cls-19" d="M318.266,326.3H105.183c-5.03,0-5.014-3.401.035-7.559l30.068-24.757c5.049-4.157,11.654-7.563,14.678-7.568l128.093-.216c3.024-.005,9.239,3.412,13.811,7.594l27.229,24.903c4.572,4.182,4.198,7.603-.832,7.603Z"/><path class="cls-6" d="M318.266,326.206H105.183c-5.03,0-5.014-3.401.035-7.559l30.068-24.757c5.049-4.157,11.654-7.563,14.678-7.568l128.093-.216c3.024-.005,9.239,3.412,13.811,7.594l27.229,24.903c4.572,4.182,4.198,7.603-.832,7.603Z"/><path class="cls-19" d="M318.266,326.206H105.183c-5.03,0-5.014-3.401.035-7.559l30.068-24.757c5.049-4.157,11.654-7.563,14.678-7.568l128.093-.216c3.024-.005,9.239,3.412,13.811,7.594l27.229,24.903c4.572,4.182,4.198,7.603-.832,7.603Z"/><path class="cls-6" d="M318.266,326.113H105.183c-5.03,0-5.014-3.401.035-7.559l30.068-24.757c5.049-4.157,11.654-7.563,14.678-7.568l128.093-.216c3.024-.005,9.239,3.412,13.811,7.594l27.229,24.903c4.572,4.182,4.198,7.603-.832,7.603Z"/><path class="cls-19" d="M318.266,326.113H105.183c-5.03,0-5.014-3.401.035-7.559l30.068-24.757c5.049-4.157,11.654-7.563,14.678-7.568l128.093-.216c3.024-.005,9.239,3.412,13.811,7.594l27.229,24.903c4.572,4.182,4.198,7.603-.832,7.603Z"/><path class="cls-6" d="M318.266,326.02H105.183c-5.03,0-5.014-3.401.035-7.559l30.068-24.757c5.049-4.157,11.654-7.563,14.678-7.568l128.093-.216c3.024-.005,9.239,3.412,13.811,7.594l27.229,24.903c4.572,4.182,4.198,7.603-.832,7.603Z"/><path class="cls-19" d="M318.266,326.02H105.183c-5.03,0-5.014-3.401.035-7.559l30.068-24.757c5.049-4.157,11.654-7.563,14.678-7.568l128.093-.216c3.024-.005,9.239,3.412,13.811,7.594l27.229,24.903c4.572,4.182,4.198,7.603-.832,7.603Z"/><path class="cls-6" d="M318.266,325.926H105.183c-5.03,0-5.014-3.401.035-7.559l30.068-24.757c5.049-4.157,11.654-7.563,14.678-7.568l128.093-.216c3.024-.005,9.239,3.412,13.811,7.594l27.229,24.903c4.572,4.182,4.198,7.603-.832,7.603Z"/><path class="cls-19" d="M318.266,325.926H105.183c-5.03,0-5.014-3.401.035-7.559l30.068-24.757c5.049-4.157,11.654-7.563,14.678-7.568l128.093-.216c3.024-.005,9.239,3.412,13.811,7.594l27.229,24.903c4.572,4.182,4.198,7.603-.832,7.603Z"/><path class="cls-6" d="M318.266,325.833H105.183c-5.03,0-5.014-3.401.035-7.559l30.068-24.757c5.049-4.157,11.654-7.563,14.678-7.568l128.093-.216c3.024-.005,9.239,3.412,13.811,7.594l27.229,24.903c4.572,4.182,4.198,7.603-.832,7.603Z"/><path class="cls-19" d="M318.266,325.833H105.183c-5.03,0-5.014-3.401.035-7.559l30.068-24.757c5.049-4.157,11.654-7.563,14.678-7.568l128.093-.216c3.024-.005,9.239,3.412,13.811,7.594l27.229,24.903c4.572,4.182,4.198,7.603-.832,7.603Z"/><path class="cls-6" d="M318.266,325.74H105.183c-5.03,0-5.014-3.401.035-7.559l30.068-24.757c5.049-4.157,11.654-7.563,14.678-7.568l128.093-.216c3.024-.005,9.239,3.412,13.811,7.594l27.229,24.903c4.572,4.182,4.198,7.603-.832,7.603Z"/><path class="cls-19" d="M318.266,325.74H105.183c-5.03,0-5.014-3.401.035-7.559l30.068-24.757c5.049-4.157,11.654-7.563,14.678-7.568l128.093-.216c3.024-.005,9.239,3.412,13.811,7.594l27.229,24.903c4.572,4.182,4.198,7.603-.832,7.603Z"/><path class="cls-6" d="M318.266,325.646H105.183c-5.03,0-5.014-3.401.035-7.559l30.068-24.757c5.049-4.157,11.654-7.563,14.678-7.568l128.093-.216c3.024-.005,9.239,3.412,13.811,7.594l27.229,24.903c4.572,4.182,4.198,7.603-.832,7.603Z"/><path class="cls-19" d="M318.266,325.646H105.183c-5.03,0-5.014-3.401.035-7.559l30.068-24.757c5.049-4.157,11.654-7.563,14.678-7.568l128.093-.216c3.024-.005,9.239,3.412,13.811,7.594l27.229,24.903c4.572,4.182,4.198,7.603-.832,7.603Z"/><path class="cls-6" d="M318.266,325.553H105.183c-5.03,0-5.014-3.401.035-7.559l30.068-24.757c5.049-4.157,11.654-7.563,14.678-7.568l128.093-.216c3.024-.005,9.239,3.412,13.811,7.594l27.229,24.903c4.572,4.182,4.198,7.603-.832,7.603Z"/><path class="cls-19" d="M318.266,325.553H105.183c-5.03,0-5.014-3.401.035-7.559l30.068-24.757c5.049-4.157,11.654-7.563,14.678-7.568l128.093-.216c3.024-.005,9.239,3.412,13.811,7.594l27.229,24.903c4.572,4.182,4.198,7.603-.832,7.603Z"/><path class="cls-6" d="M318.266,325.46H105.183c-5.03,0-5.014-3.401.035-7.559l30.068-24.757c5.049-4.157,11.654-7.563,14.678-7.568l128.093-.216c3.024-.005,9.239,3.412,13.811,7.594l27.229,24.903c4.572,4.182,4.198,7.603-.832,7.603Z"/><path class="cls-19" d="M318.266,325.46H105.183c-5.03,0-5.014-3.401.035-7.559l30.068-24.757c5.049-4.157,11.654-7.563,14.678-7.568l128.093-.216c3.024-.005,9.239,3.412,13.811,7.594l27.229,24.903c4.572,4.182,4.198,7.603-.832,7.603Z"/><path class="cls-6" d="M318.266,325.367H105.183c-5.03,0-5.014-3.401.035-7.559l30.068-24.757c5.049-4.157,11.654-7.563,14.678-7.568l128.093-.216c3.024-.005,9.239,3.412,13.811,7.594l27.229,24.903c4.572,4.182,4.198,7.603-.832,7.603Z"/><path class="cls-19" d="M318.266,325.367H105.183c-5.03,0-5.014-3.401.035-7.559l30.068-24.757c5.049-4.157,11.654-7.563,14.678-7.568l128.093-.216c3.024-.005,9.239,3.412,13.811,7.594l27.229,24.903c4.572,4.182,4.198,7.603-.832,7.603Z"/><path class="cls-6" d="M318.266,325.273H105.183c-5.03,0-5.014-3.401.035-7.559l30.068-24.757c5.049-4.157,11.654-7.563,14.678-7.568l128.093-.216c3.024-.005,9.239,3.412,13.811,7.594l27.229,24.903c4.572,4.182,4.198,7.603-.832,7.603Z"/><path class="cls-19" d="M318.266,325.273H105.183c-5.03,0-5.014-3.401.035-7.559l30.068-24.757c5.049-4.157,11.654-7.563,14.678-7.568l128.093-.216c3.024-.005,9.239,3.412,13.811,7.594l27.229,24.903c4.572,4.182,4.198,7.603-.832,7.603Z"/><path class="cls-6" d="M318.266,325.18H105.183c-5.03,0-5.014-3.401.035-7.559l30.068-24.757c5.049-4.157,11.654-7.563,14.678-7.568l128.093-.216c3.024-.005,9.239,3.412,13.811,7.594l27.229,24.903c4.572,4.182,4.198,7.603-.832,7.603Z"/><path class="cls-19" d="M318.266,325.18H105.183c-5.03,0-5.014-3.401.035-7.559l30.068-24.757c5.049-4.157,11.654-7.563,14.678-7.568l128.093-.216c3.024-.005,9.239,3.412,13.811,7.594l27.229,24.903c4.572,4.182,4.198,7.603-.832,7.603Z"/><path class="cls-6" d="M318.266,325.087H105.183c-5.03,0-5.014-3.401.035-7.559l30.068-24.757c5.049-4.157,11.654-7.563,14.678-7.568l128.093-.216c3.024-.005,9.239,3.412,13.811,7.594l27.229,24.903c4.572,4.182,4.198,7.603-.832,7.603Z"/><path class="cls-19" d="M318.266,325.087H105.183c-5.03,0-5.014-3.401.035-7.559l30.068-24.757c5.049-4.157,11.654-7.563,14.678-7.568l128.093-.216c3.024-.005,9.239,3.412,13.811,7.594l27.229,24.903c4.572,4.182,4.198,7.603-.832,7.603Z"/><path class="cls-6" d="M318.266,324.993H105.183c-5.03,0-5.014-3.401.035-7.559l30.068-24.757c5.049-4.157,11.654-7.563,14.678-7.568l128.093-.216c3.024-.005,9.239,3.412,13.811,7.594l27.229,24.903c4.572,4.182,4.198,7.603-.832,7.603Z"/><path class="cls-19" d="M318.266,324.993H105.183c-5.03,0-5.014-3.401.035-7.559l30.068-24.757c5.049-4.157,11.654-7.563,14.678-7.568l128.093-.216c3.024-.005,9.239,3.412,13.811,7.594l27.229,24.903c4.572,4.182,4.198,7.603-.832,7.603Z"/><path class="cls-6" d="M318.266,324.9H105.183c-5.03,0-5.014-3.401.035-7.559l30.068-24.757c5.049-4.157,11.654-7.563,14.678-7.568l128.093-.216c3.024-.005,9.239,3.412,13.811,7.594l27.229,24.903c4.572,4.182,4.198,7.603-.832,7.603Z"/><path class="cls-19" d="M318.266,324.9H105.183c-5.03,0-5.014-3.401.035-7.559l30.068-24.757c5.049-4.157,11.654-7.563,14.678-7.568l128.093-.216c3.024-.005,9.239,3.412,13.811,7.594l27.229,24.903c4.572,4.182,4.198,7.603-.832,7.603Z"/><path class="cls-6" d="M318.266,324.807H105.183c-5.03,0-5.014-3.401.035-7.559l30.068-24.757c5.049-4.157,11.654-7.563,14.678-7.568l128.093-.216c3.024-.005,9.239,3.412,13.811,7.594l27.229,24.903c4.572,4.182,4.198,7.603-.832,7.603Z"/><path class="cls-19" d="M318.266,324.807H105.183c-5.03,0-5.014-3.401.035-7.559l30.068-24.757c5.049-4.157,11.654-7.563,14.678-7.568l128.093-.216c3.024-.005,9.239,3.412,13.811,7.594l27.229,24.903c4.572,4.182,4.198,7.603-.832,7.603Z"/><path class="cls-6" d="M318.266,324.713H105.183c-5.03,0-5.014-3.401.035-7.559l30.068-24.757c5.049-4.157,11.654-7.563,14.678-7.568l128.093-.216c3.024-.005,9.239,3.412,13.811,7.594l27.229,24.903c4.572,4.182,4.198,7.603-.832,7.603Z"/><path class="cls-19" d="M318.266,324.713H105.183c-5.03,0-5.014-3.401.035-7.559l30.068-24.757c5.049-4.157,11.654-7.563,14.678-7.568l128.093-.216c3.024-.005,9.239,3.412,13.811,7.594l27.229,24.903c4.572,4.182,4.198,7.603-.832,7.603Z"/><path class="cls-6" d="M318.266,324.62H105.183c-5.03,0-5.014-3.401.035-7.559l30.068-24.757c5.049-4.157,11.654-7.563,14.678-7.568l128.093-.216c3.024-.005,9.239,3.412,13.811,7.594l27.229,24.903c4.572,4.182,4.198,7.603-.832,7.603Z"/><path class="cls-19" d="M318.266,324.62H105.183c-5.03,0-5.014-3.401.035-7.559l30.068-24.757c5.049-4.157,11.654-7.563,14.678-7.568l128.093-.216c3.024-.005,9.239,3.412,13.811,7.594l27.229,24.903c4.572,4.182,4.198,7.603-.832,7.603Z"/><path class="cls-6" d="M318.266,324.527H105.183c-5.03,0-5.014-3.401.035-7.559l30.068-24.757c5.049-4.157,11.654-7.563,14.678-7.568l128.093-.216c3.024-.005,9.239,3.412,13.811,7.594l27.229,24.903c4.572,4.182,4.198,7.603-.832,7.603Z"/><path class="cls-19" d="M318.266,324.527H105.183c-5.03,0-5.014-3.401.035-7.559l30.068-24.757c5.049-4.157,11.654-7.563,14.678-7.568l128.093-.216c3.024-.005,9.239,3.412,13.811,7.594l27.229,24.903c4.572,4.182,4.198,7.603-.832,7.603Z"/><path class="cls-6" d="M318.266,324.433H105.183c-5.03,0-5.014-3.401.035-7.559l30.068-24.757c5.049-4.157,11.654-7.563,14.678-7.568l128.093-.216c3.024-.005,9.239,3.412,13.811,7.594l27.229,24.903c4.572,4.182,4.198,7.603-.832,7.603Z"/><path class="cls-19" d="M318.266,324.433H105.183c-5.03,0-5.014-3.401.035-7.559l30.068-24.757c5.049-4.157,11.654-7.563,14.678-7.568l128.093-.216c3.024-.005,9.239,3.412,13.811,7.594l27.229,24.903c4.572,4.182,4.198,7.603-.832,7.603Z"/><path class="cls-6" d="M318.266,324.34H105.183c-5.03,0-5.014-3.401.035-7.559l30.068-24.757c5.049-4.157,11.654-7.563,14.678-7.568l128.093-.216c3.024-.005,9.239,3.412,13.811,7.594l27.229,24.903c4.572,4.182,4.198,7.603-.832,7.603Z"/><path class="cls-19" d="M318.266,324.34H105.183c-5.03,0-5.014-3.401.035-7.559l30.068-24.757c5.049-4.157,11.654-7.563,14.678-7.568l128.093-.216c3.024-.005,9.239,3.412,13.811,7.594l27.229,24.903c4.572,4.182,4.198,7.603-.832,7.603Z"/><path class="cls-6" d="M318.266,324.247H105.183c-5.03,0-5.014-3.401.035-7.559l30.068-24.757c5.049-4.157,11.654-7.563,14.678-7.568l128.093-.216c3.024-.005,9.239,3.412,13.811,7.594l27.229,24.903c4.572,4.182,4.198,7.603-.832,7.603Z"/><path class="cls-19" d="M318.266,324.247H105.183c-5.03,0-5.014-3.401.035-7.559l30.068-24.757c5.049-4.157,11.654-7.563,14.678-7.568l128.093-.216c3.024-.005,9.239,3.412,13.811,7.594l27.229,24.903c4.572,4.182,4.198,7.603-.832,7.603Z"/><path class="cls-6" d="M318.266,324.154H105.183c-5.03,0-5.014-3.401.035-7.559l30.068-24.757c5.049-4.157,11.654-7.563,14.678-7.568l128.093-.216c3.024-.005,9.239,3.412,13.811,7.594l27.229,24.903c4.572,4.182,4.198,7.603-.832,7.603Z"/><path class="cls-19" d="M318.266,324.154H105.183c-5.03,0-5.014-3.401.035-7.559l30.068-24.757c5.049-4.157,11.654-7.563,14.678-7.568l128.093-.216c3.024-.005,9.239,3.412,13.811,7.594l27.229,24.903c4.572,4.182,4.198,7.603-.832,7.603Z"/><path class="cls-6" d="M318.266,324.06H105.183c-5.03,0-5.014-3.401.035-7.559l30.068-24.757c5.049-4.157,11.654-7.563,14.678-7.568l128.093-.216c3.024-.005,9.239,3.412,13.811,7.594l27.229,24.903c4.572,4.182,4.198,7.603-.832,7.603Z"/><path class="cls-19" d="M318.266,324.06H105.183c-5.03,0-5.014-3.401.035-7.559l30.068-24.757c5.049-4.157,11.654-7.563,14.678-7.568l128.093-.216c3.024-.005,9.239,3.412,13.811,7.594l27.229,24.903c4.572,4.182,4.198,7.603-.832,7.603Z"/><path class="cls-6" d="M318.266,323.967H105.183c-5.03,0-5.014-3.401.035-7.559l30.068-24.757c5.049-4.157,11.654-7.563,14.678-7.568l128.093-.216c3.024-.005,9.239,3.412,13.811,7.594l27.229,24.903c4.572,4.182,4.198,7.603-.832,7.603Z"/><path class="cls-19" d="M318.266,323.967H105.183c-5.03,0-5.014-3.401.035-7.559l30.068-24.757c5.049-4.157,11.654-7.563,14.678-7.568l128.093-.216c3.024-.005,9.239,3.412,13.811,7.594l27.229,24.903c4.572,4.182,4.198,7.603-.832,7.603Z"/><path class="cls-6" d="M318.266,323.874H105.183c-5.03,0-5.014-3.401.035-7.559l30.068-24.757c5.049-4.157,11.654-7.563,14.678-7.568l128.093-.216c3.024-.005,9.239,3.412,13.811,7.594l27.229,24.903c4.572,4.182,4.198,7.603-.832,7.603Z"/><path class="cls-19" d="M318.266,323.874H105.183c-5.03,0-5.014-3.401.035-7.559l30.068-24.757c5.049-4.157,11.654-7.563,14.678-7.568l128.093-.216c3.024-.005,9.239,3.412,13.811,7.594l27.229,24.903c4.572,4.182,4.198,7.603-.832,7.603Z"/><path class="cls-6" d="M318.266,323.78H105.183c-5.03,0-5.014-3.401.035-7.559l30.068-24.757c5.049-4.157,11.654-7.563,14.678-7.568l128.093-.216c3.024-.005,9.239,3.412,13.811,7.594l27.229,24.903c4.572,4.182,4.198,7.603-.832,7.603Z"/><path class="cls-19" d="M318.266,323.78H105.183c-5.03,0-5.014-3.401.035-7.559l30.068-24.757c5.049-4.157,11.654-7.563,14.678-7.568l128.093-.216c3.024-.005,9.239,3.412,13.811,7.594l27.229,24.903c4.572,4.182,4.198,7.603-.832,7.603Z"/><path class="cls-6" d="M318.266,323.687H105.183c-5.03,0-5.014-3.401.035-7.559l30.068-24.757c5.049-4.157,11.654-7.563,14.678-7.568l128.093-.216c3.024-.005,9.239,3.412,13.811,7.594l27.229,24.903c4.572,4.182,4.198,7.603-.832,7.603Z"/><path class="cls-19" d="M318.266,323.687H105.183c-5.03,0-5.014-3.401.035-7.559l30.068-24.757c5.049-4.157,11.654-7.563,14.678-7.568l128.093-.216c3.024-.005,9.239,3.412,13.811,7.594l27.229,24.903c4.572,4.182,4.198,7.603-.832,7.603Z"/><path class="cls-6" d="M318.266,323.594H105.183c-5.03,0-5.014-3.401.035-7.559l30.068-24.757c5.049-4.157,11.654-7.563,14.678-7.568l128.093-.216c3.024-.005,9.239,3.412,13.811,7.594l27.229,24.903c4.572,4.182,4.198,7.603-.832,7.603Z"/><path class="cls-19" d="M318.266,323.594H105.183c-5.03,0-5.014-3.401.035-7.559l30.068-24.757c5.049-4.157,11.654-7.563,14.678-7.568l128.093-.216c3.024-.005,9.239,3.412,13.811,7.594l27.229,24.903c4.572,4.182,4.198,7.603-.832,7.603Z"/><path class="cls-6" d="M318.266,323.5H105.183c-5.03,0-5.014-3.401.035-7.559l30.068-24.757c5.049-4.157,11.654-7.563,14.678-7.568l128.093-.216c3.024-.005,9.239,3.412,13.811,7.594l27.229,24.903c4.572,4.182,4.198,7.603-.832,7.603Z"/><path class="cls-19" d="M318.266,323.5H105.183c-5.03,0-5.014-3.401.035-7.559l30.068-24.757c5.049-4.157,11.654-7.563,14.678-7.568l128.093-.216c3.024-.005,9.239,3.412,13.811,7.594l27.229,24.903c4.572,4.182,4.198,7.603-.832,7.603Z"/><path class="cls-6" d="M318.266,323.407H105.183c-5.03,0-5.014-3.401.035-7.559l30.068-24.757c5.049-4.157,11.654-7.563,14.678-7.568l128.093-.216c3.024-.005,9.239,3.412,13.811,7.594l27.229,24.903c4.572,4.182,4.198,7.603-.832,7.603Z"/><path class="cls-19" d="M318.266,323.407H105.183c-5.03,0-5.014-3.401.035-7.559l30.068-24.757c5.049-4.157,11.654-7.563,14.678-7.568l128.093-.216c3.024-.005,9.239,3.412,13.811,7.594l27.229,24.903c4.572,4.182,4.198,7.603-.832,7.603Z"/><path class="cls-6" d="M318.266,323.314H105.183c-5.03,0-5.014-3.401.035-7.559l30.068-24.757c5.049-4.157,11.654-7.563,14.678-7.568l128.093-.216c3.024-.005,9.239,3.412,13.811,7.594l27.229,24.903c4.572,4.182,4.198,7.603-.832,7.603Z"/><path class="cls-19" d="M318.266,323.314H105.183c-5.03,0-5.014-3.401.035-7.559l30.068-24.757c5.049-4.157,11.654-7.563,14.678-7.568l128.093-.216c3.024-.005,9.239,3.412,13.811,7.594l27.229,24.903c4.572,4.182,4.198,7.603-.832,7.603Z"/><path class="cls-6" d="M318.266,323.22H105.183c-5.03,0-5.014-3.401.035-7.559l30.068-24.757c5.049-4.157,11.654-7.563,14.678-7.568l128.093-.216c3.024-.005,9.239,3.412,13.811,7.594l27.229,24.903c4.572,4.182,4.198,7.603-.832,7.603Z"/><path class="cls-19" d="M318.266,323.22H105.183c-5.03,0-5.014-3.401.035-7.559l30.068-24.757c5.049-4.157,11.654-7.563,14.678-7.568l128.093-.216c3.024-.005,9.239,3.412,13.811,7.594l27.229,24.903c4.572,4.182,4.198,7.603-.832,7.603Z"/><path class="cls-6" d="M318.266,323.127H105.183c-5.03,0-5.014-3.401.035-7.559l30.068-24.757c5.049-4.157,11.654-7.563,14.678-7.568l128.093-.216c3.024-.005,9.239,3.412,13.811,7.594l27.229,24.903c4.572,4.182,4.198,7.603-.832,7.603Z"/><path class="cls-19" d="M318.266,323.127H105.183c-5.03,0-5.014-3.401.035-7.559l30.068-24.757c5.049-4.157,11.654-7.563,14.678-7.568l128.093-.216c3.024-.005,9.239,3.412,13.811,7.594l27.229,24.903c4.572,4.182,4.198,7.603-.832,7.603Z"/><path class="cls-6" d="M318.266,323.034H105.183c-5.03,0-5.014-3.401.035-7.559l30.068-24.757c5.049-4.157,11.654-7.563,14.678-7.568l128.093-.216c3.024-.005,9.239,3.412,13.811,7.594l27.229,24.903c4.572,4.182,4.198,7.603-.832,7.603Z"/><path class="cls-19" d="M318.266,323.034H105.183c-5.03,0-5.014-3.401.035-7.559l30.068-24.757c5.049-4.157,11.654-7.563,14.678-7.568l128.093-.216c3.024-.005,9.239,3.412,13.811,7.594l27.229,24.903c4.572,4.182,4.198,7.603-.832,7.603Z"/><path class="cls-6" d="M318.266,322.941H105.183c-5.03,0-5.014-3.401.035-7.559l30.068-24.757c5.049-4.157,11.654-7.563,14.678-7.568l128.093-.216c3.024-.005,9.239,3.412,13.811,7.594l27.229,24.903c4.572,4.182,4.198,7.603-.832,7.603Z"/><path class="cls-19" d="M318.266,322.941H105.183c-5.03,0-5.014-3.401.035-7.559l30.068-24.757c5.049-4.157,11.654-7.563,14.678-7.568l128.093-.216c3.024-.005,9.239,3.412,13.811,7.594l27.229,24.903c4.572,4.182,4.198,7.603-.832,7.603Z"/><path class="cls-6" d="M318.266,322.847H105.183c-5.03,0-5.014-3.401.035-7.559l30.068-24.757c5.049-4.157,11.654-7.563,14.678-7.568l128.093-.216c3.024-.005,9.239,3.412,13.811,7.594l27.229,24.903c4.572,4.182,4.198,7.603-.832,7.603Z"/><path class="cls-19" d="M318.266,322.847H105.183c-5.03,0-5.014-3.401.035-7.559l30.068-24.757c5.049-4.157,11.654-7.563,14.678-7.568l128.093-.216c3.024-.005,9.239,3.412,13.811,7.594l27.229,24.903c4.572,4.182,4.198,7.603-.832,7.603Z"/><path class="cls-6" d="M318.266,322.754H105.183c-5.03,0-5.014-3.401.035-7.559l30.068-24.757c5.049-4.157,11.654-7.563,14.678-7.568l128.093-.216c3.024-.005,9.239,3.412,13.811,7.594l27.229,24.903c4.572,4.182,4.198,7.603-.832,7.603Z"/><path class="cls-19" d="M318.266,322.754H105.183c-5.03,0-5.014-3.401.035-7.559l30.068-24.757c5.049-4.157,11.654-7.563,14.678-7.568l128.093-.216c3.024-.005,9.239,3.412,13.811,7.594l27.229,24.903c4.572,4.182,4.198,7.603-.832,7.603Z"/><path class="cls-6" d="M318.266,322.661H105.183c-5.03,0-5.014-3.401.035-7.559l30.068-24.757c5.049-4.157,11.654-7.563,14.678-7.568l128.093-.216c3.024-.005,9.239,3.412,13.811,7.594l27.229,24.903c4.572,4.182,4.198,7.603-.832,7.603Z"/><path class="cls-19" d="M318.266,322.661H105.183c-5.03,0-5.014-3.401.035-7.559l30.068-24.757c5.049-4.157,11.654-7.563,14.678-7.568l128.093-.216c3.024-.005,9.239,3.412,13.811,7.594l27.229,24.903c4.572,4.182,4.198,7.603-.832,7.603Z"/><path class="cls-6" d="M318.266,322.567H105.183c-5.03,0-5.014-3.401.035-7.559l30.068-24.757c5.049-4.157,11.654-7.563,14.678-7.568l128.093-.216c3.024-.005,9.239,3.412,13.811,7.594l27.229,24.903c4.572,4.182,4.198,7.603-.832,7.603Z"/><path class="cls-19" d="M318.266,322.567H105.183c-5.03,0-5.014-3.401.035-7.559l30.068-24.757c5.049-4.157,11.654-7.563,14.678-7.568l128.093-.216c3.024-.005,9.239,3.412,13.811,7.594l27.229,24.903c4.572,4.182,4.198,7.603-.832,7.603Z"/><path class="cls-6" d="M318.266,322.474H105.183c-5.03,0-5.014-3.401.035-7.559l30.068-24.757c5.049-4.157,11.654-7.563,14.678-7.568l128.093-.216c3.024-.005,9.239,3.412,13.811,7.594l27.229,24.903c4.572,4.182,4.198,7.603-.832,7.603Z"/><path class="cls-19" d="M318.266,322.474H105.183c-5.03,0-5.014-3.401.035-7.559l30.068-24.757c5.049-4.157,11.654-7.563,14.678-7.568l128.093-.216c3.024-.005,9.239,3.412,13.811,7.594l27.229,24.903c4.572,4.182,4.198,7.603-.832,7.603Z"/><path class="cls-6" d="M318.266,322.381H105.183c-5.03,0-5.014-3.401.035-7.559l30.068-24.757c5.049-4.157,11.654-7.563,14.678-7.568l128.093-.216c3.024-.005,9.239,3.412,13.811,7.594l27.229,24.903c4.572,4.182,4.198,7.603-.832,7.603Z"/><path class="cls-19" d="M318.266,322.381H105.183c-5.03,0-5.014-3.401.035-7.559l30.068-24.757c5.049-4.157,11.654-7.563,14.678-7.568l128.093-.216c3.024-.005,9.239,3.412,13.811,7.594l27.229,24.903c4.572,4.182,4.198,7.603-.832,7.603Z"/><path class="cls-6" d="M318.266,322.287H105.183c-5.03,0-5.014-3.401.035-7.559l30.068-24.757c5.049-4.157,11.654-7.563,14.678-7.568l128.093-.216c3.024-.005,9.239,3.412,13.811,7.594l27.229,24.903c4.572,4.182,4.198,7.603-.832,7.603Z"/><path class="cls-19" d="M318.266,322.287H105.183c-5.03,0-5.014-3.401.035-7.559l30.068-24.757c5.049-4.157,11.654-7.563,14.678-7.568l128.093-.216c3.024-.005,9.239,3.412,13.811,7.594l27.229,24.903c4.572,4.182,4.198,7.603-.832,7.603Z"/><path class="cls-6" d="M318.266,322.194H105.183c-5.03,0-5.014-3.401.035-7.559l30.068-24.757c5.049-4.157,11.654-7.563,14.678-7.568l128.093-.216c3.024-.005,9.239,3.412,13.811,7.594l27.229,24.903c4.572,4.182,4.198,7.603-.832,7.603Z"/><path class="cls-19" d="M318.266,322.194H105.183c-5.03,0-5.014-3.401.035-7.559l30.068-24.757c5.049-4.157,11.654-7.563,14.678-7.568l128.093-.216c3.024-.005,9.239,3.412,13.811,7.594l27.229,24.903c4.572,4.182,4.198,7.603-.832,7.603Z"/><path class="cls-6" d="M318.266,322.101H105.183c-5.03,0-5.014-3.401.035-7.559l30.068-24.757c5.049-4.157,11.654-7.563,14.678-7.568l128.093-.216c3.024-.005,9.239,3.412,13.811,7.594l27.229,24.903c4.572,4.182,4.198,7.603-.832,7.603Z"/><path class="cls-19" d="M318.266,322.101H105.183c-5.03,0-5.014-3.401.035-7.559l30.068-24.757c5.049-4.157,11.654-7.563,14.678-7.568l128.093-.216c3.024-.005,9.239,3.412,13.811,7.594l27.229,24.903c4.572,4.182,4.198,7.603-.832,7.603Z"/><path class="cls-6" d="M318.266,322.007H105.183c-5.03,0-5.014-3.401.035-7.559l30.068-24.757c5.049-4.157,11.654-7.563,14.678-7.568l128.093-.216c3.024-.005,9.239,3.412,13.811,7.594l27.229,24.903c4.572,4.182,4.198,7.603-.832,7.603Z"/><path class="cls-19" d="M318.266,322.007H105.183c-5.03,0-5.014-3.401.035-7.559l30.068-24.757c5.049-4.157,11.654-7.563,14.678-7.568l128.093-.216c3.024-.005,9.239,3.412,13.811,7.594l27.229,24.903c4.572,4.182,4.198,7.603-.832,7.603Z"/><path class="cls-6" d="M318.266,321.914H105.183c-5.03,0-5.014-3.401.035-7.559l30.068-24.757c5.049-4.157,11.654-7.563,14.678-7.568l128.093-.216c3.024-.005,9.239,3.412,13.811,7.594l27.229,24.903c4.572,4.182,4.198,7.603-.832,7.603Z"/><path class="cls-19" d="M318.266,321.914H105.183c-5.03,0-5.014-3.401.035-7.559l30.068-24.757c5.049-4.157,11.654-7.563,14.678-7.568l128.093-.216c3.024-.005,9.239,3.412,13.811,7.594l27.229,24.903c4.572,4.182,4.198,7.603-.832,7.603Z"/><path class="cls-6" d="M318.266,321.821H105.183c-5.03,0-5.014-3.401.035-7.559l30.068-24.757c5.049-4.157,11.654-7.563,14.678-7.568l128.093-.216c3.024-.005,9.239,3.412,13.811,7.594l27.229,24.903c4.572,4.182,4.198,7.603-.832,7.603Z"/><path class="cls-19" d="M318.266,321.821H105.183c-5.03,0-5.014-3.401.035-7.559l30.068-24.757c5.049-4.157,11.654-7.563,14.678-7.568l128.093-.216c3.024-.005,9.239,3.412,13.811,7.594l27.229,24.903c4.572,4.182,4.198,7.603-.832,7.603Z"/><path class="cls-6" d="M318.266,321.728H105.183c-5.03,0-5.014-3.401.035-7.559l30.068-24.757c5.049-4.157,11.654-7.563,14.678-7.568l128.093-.216c3.024-.005,9.239,3.412,13.811,7.594l27.229,24.903c4.572,4.182,4.198,7.603-.832,7.603Z"/><path class="cls-19" d="M318.266,321.728H105.183c-5.03,0-5.014-3.401.035-7.559l30.068-24.757c5.049-4.157,11.654-7.563,14.678-7.568l128.093-.216c3.024-.005,9.239,3.412,13.811,7.594l27.229,24.903c4.572,4.182,4.198,7.603-.832,7.603Z"/><path class="cls-6" d="M318.266,321.634H105.183c-5.03,0-5.014-3.401.035-7.559l30.068-24.757c5.049-4.157,11.654-7.563,14.678-7.568l128.093-.216c3.024-.005,9.239,3.412,13.811,7.594l27.229,24.903c4.572,4.182,4.198,7.603-.832,7.603Z"/><path class="cls-19" d="M318.266,321.634H105.183c-5.03,0-5.014-3.401.035-7.559l30.068-24.757c5.049-4.157,11.654-7.563,14.678-7.568l128.093-.216c3.024-.005,9.239,3.412,13.811,7.594l27.229,24.903c4.572,4.182,4.198,7.603-.832,7.603Z"/><path class="cls-6" d="M318.266,321.541H105.183c-5.03,0-5.014-3.401.035-7.559l30.068-24.757c5.049-4.157,11.654-7.563,14.678-7.568l128.093-.216c3.024-.005,9.239,3.412,13.811,7.594l27.229,24.903c4.572,4.182,4.198,7.603-.832,7.603Z"/><path class="cls-19" d="M318.266,321.541H105.183c-5.03,0-5.014-3.401.035-7.559l30.068-24.757c5.049-4.157,11.654-7.563,14.678-7.568l128.093-.216c3.024-.005,9.239,3.412,13.811,7.594l27.229,24.903c4.572,4.182,4.198,7.603-.832,7.603Z"/><path class="cls-6" d="M318.266,321.448H105.183c-5.03,0-5.014-3.401.035-7.559l30.068-24.757c5.049-4.157,11.654-7.563,14.678-7.568l128.093-.216c3.024-.005,9.239,3.412,13.811,7.594l27.229,24.903c4.572,4.182,4.198,7.603-.832,7.603Z"/><path class="cls-19" d="M318.266,321.448H105.183c-5.03,0-5.014-3.401.035-7.559l30.068-24.757c5.049-4.157,11.654-7.563,14.678-7.568l128.093-.216c3.024-.005,9.239,3.412,13.811,7.594l27.229,24.903c4.572,4.182,4.198,7.603-.832,7.603Z"/><path class="cls-6" d="M318.266,321.354H105.183c-5.03,0-5.014-3.401.035-7.559l30.068-24.757c5.049-4.157,11.654-7.563,14.678-7.568l128.093-.216c3.024-.005,9.239,3.412,13.811,7.594l27.229,24.903c4.572,4.182,4.198,7.603-.832,7.603Z"/><path class="cls-19" d="M318.266,321.354H105.183c-5.03,0-5.014-3.401.035-7.559l30.068-24.757c5.049-4.157,11.654-7.563,14.678-7.568l128.093-.216c3.024-.005,9.239,3.412,13.811,7.594l27.229,24.903c4.572,4.182,4.198,7.603-.832,7.603Z"/><path class="cls-6" d="M318.266,321.261H105.183c-5.03,0-5.014-3.401.035-7.559l30.068-24.757c5.049-4.157,11.654-7.563,14.678-7.568l128.093-.216c3.024-.005,9.239,3.412,13.811,7.594l27.229,24.903c4.572,4.182,4.198,7.603-.832,7.603Z"/><path class="cls-19" d="M318.266,321.261H105.183c-5.03,0-5.014-3.401.035-7.559l30.068-24.757c5.049-4.157,11.654-7.563,14.678-7.568l128.093-.216c3.024-.005,9.239,3.412,13.811,7.594l27.229,24.903c4.572,4.182,4.198,7.603-.832,7.603Z"/><path class="cls-6" d="M318.266,321.168H105.183c-5.03,0-5.014-3.401.035-7.559l30.068-24.757c5.049-4.157,11.654-7.563,14.678-7.568l128.093-.216c3.024-.005,9.239,3.412,13.811,7.594l27.229,24.903c4.572,4.182,4.198,7.603-.832,7.603Z"/><path class="cls-19" d="M318.266,321.168H105.183c-5.03,0-5.014-3.401.035-7.559l30.068-24.757c5.049-4.157,11.654-7.563,14.678-7.568l128.093-.216c3.024-.005,9.239,3.412,13.811,7.594l27.229,24.903c4.572,4.182,4.198,7.603-.832,7.603Z"/><path class="cls-6" d="M318.266,321.074H105.183c-5.03,0-5.014-3.401.035-7.559l30.068-24.757c5.049-4.157,11.654-7.563,14.678-7.568l128.093-.216c3.024-.005,9.239,3.412,13.811,7.594l27.229,24.903c4.572,4.182,4.198,7.603-.832,7.603Z"/><path class="cls-19" d="M318.266,321.074H105.183c-5.03,0-5.014-3.401.035-7.559l30.068-24.757c5.049-4.157,11.654-7.563,14.678-7.568l128.093-.216c3.024-.005,9.239,3.412,13.811,7.594l27.229,24.903c4.572,4.182,4.198,7.603-.832,7.603Z"/><path class="cls-6" d="M318.266,320.981H105.183c-5.03,0-5.014-3.401.035-7.559l30.068-24.757c5.049-4.157,11.654-7.563,14.678-7.568l128.093-.216c3.024-.005,9.239,3.412,13.811,7.594l27.229,24.903c4.572,4.182,4.198,7.603-.832,7.603Z"/><path class="cls-19" d="M318.266,320.981H105.183c-5.03,0-5.014-3.401.035-7.559l30.068-24.757c5.049-4.157,11.654-7.563,14.678-7.568l128.093-.216c3.024-.005,9.239,3.412,13.811,7.594l27.229,24.903c4.572,4.182,4.198,7.603-.832,7.603Z"/><path class="cls-6" d="M318.266,320.888H105.183c-5.03,0-5.014-3.401.035-7.559l30.068-24.757c5.049-4.157,11.654-7.563,14.678-7.568l128.093-.216c3.024-.005,9.239,3.412,13.811,7.594l27.229,24.903c4.572,4.182,4.198,7.603-.832,7.603Z"/><path class="cls-19" d="M318.266,320.888H105.183c-5.03,0-5.014-3.401.035-7.559l30.068-24.757c5.049-4.157,11.654-7.563,14.678-7.568l128.093-.216c3.024-.005,9.239,3.412,13.811,7.594l27.229,24.903c4.572,4.182,4.198,7.603-.832,7.603Z"/><path class="cls-6" d="M318.266,320.794H105.183c-5.03,0-5.014-3.401.035-7.559l30.068-24.757c5.049-4.157,11.654-7.563,14.678-7.568l128.093-.216c3.024-.005,9.239,3.412,13.811,7.594l27.229,24.903c4.572,4.182,4.198,7.603-.832,7.603Z"/><path class="cls-19" d="M318.266,320.794H105.183c-5.03,0-5.014-3.401.035-7.559l30.068-24.757c5.049-4.157,11.654-7.563,14.678-7.568l128.093-.216c3.024-.005,9.239,3.412,13.811,7.594l27.229,24.903c4.572,4.182,4.198,7.603-.832,7.603Z"/><path class="cls-6" d="M318.266,320.701H105.183c-5.03,0-5.014-3.401.035-7.559l30.068-24.757c5.049-4.157,11.654-7.563,14.678-7.568l128.093-.216c3.024-.005,9.239,3.412,13.811,7.594l27.229,24.903c4.572,4.182,4.198,7.603-.832,7.603Z"/><path class="cls-19" d="M318.266,320.701H105.183c-5.03,0-5.014-3.401.035-7.559l30.068-24.757c5.049-4.157,11.654-7.563,14.678-7.568l128.093-.216c3.024-.005,9.239,3.412,13.811,7.594l27.229,24.903c4.572,4.182,4.198,7.603-.832,7.603Z"/><path class="cls-6" d="M318.266,320.608H105.183c-5.03,0-5.014-3.401.035-7.559l30.068-24.757c5.049-4.157,11.654-7.563,14.678-7.568l128.093-.216c3.024-.005,9.239,3.412,13.811,7.594l27.229,24.903c4.572,4.182,4.198,7.603-.832,7.603Z"/><path class="cls-19" d="M318.266,320.608H105.183c-5.03,0-5.014-3.401.035-7.559l30.068-24.757c5.049-4.157,11.654-7.563,14.678-7.568l128.093-.216c3.024-.005,9.239,3.412,13.811,7.594l27.229,24.903c4.572,4.182,4.198,7.603-.832,7.603Z"/><path class="cls-6" d="M318.266,320.515H105.183c-5.03,0-5.014-3.401.035-7.559l30.068-24.757c5.049-4.157,11.654-7.563,14.678-7.568l128.093-.216c3.024-.005,9.239,3.412,13.811,7.594l27.229,24.903c4.572,4.182,4.198,7.603-.832,7.603Z"/><path class="cls-19" d="M318.266,320.515H105.183c-5.03,0-5.014-3.401.035-7.559l30.068-24.757c5.049-4.157,11.654-7.563,14.678-7.568l128.093-.216c3.024-.005,9.239,3.412,13.811,7.594l27.229,24.903c4.572,4.182,4.198,7.603-.832,7.603Z"/><path class="cls-6" d="M318.266,320.421H105.183c-5.03,0-5.014-3.401.035-7.559l30.068-24.757c5.049-4.157,11.654-7.563,14.678-7.568l128.093-.216c3.024-.005,9.239,3.412,13.811,7.594l27.229,24.903c4.572,4.182,4.198,7.603-.832,7.603Z"/><path class="cls-19" d="M318.266,320.421H105.183c-5.03,0-5.014-3.401.035-7.559l30.068-24.757c5.049-4.157,11.654-7.563,14.678-7.568l128.093-.216c3.024-.005,9.239,3.412,13.811,7.594l27.229,24.903c4.572,4.182,4.198,7.603-.832,7.603Z"/><path class="cls-6" d="M318.266,320.328H105.183c-5.03,0-5.014-3.401.035-7.559l30.068-24.757c5.049-4.157,11.654-7.563,14.678-7.568l128.093-.216c3.024-.005,9.239,3.412,13.811,7.594l27.229,24.903c4.572,4.182,4.198,7.603-.832,7.603Z"/><path class="cls-19" d="M318.266,320.328H105.183c-5.03,0-5.014-3.401.035-7.559l30.068-24.757c5.049-4.157,11.654-7.563,14.678-7.568l128.093-.216c3.024-.005,9.239,3.412,13.811,7.594l27.229,24.903c4.572,4.182,4.198,7.603-.832,7.603Z"/><path class="cls-6" d="M318.266,320.235H105.183c-5.03,0-5.014-3.401.035-7.559l30.068-24.757c5.049-4.157,11.654-7.563,14.678-7.568l128.093-.216c3.024-.005,9.239,3.412,13.811,7.594l27.229,24.903c4.572,4.182,4.198,7.603-.832,7.603Z"/><path class="cls-19" d="M318.266,320.235H105.183c-5.03,0-5.014-3.401.035-7.559l30.068-24.757c5.049-4.157,11.654-7.563,14.678-7.568l128.093-.216c3.024-.005,9.239,3.412,13.811,7.594l27.229,24.903c4.572,4.182,4.198,7.603-.832,7.603Z"/><path class="cls-6" d="M318.266,320.141H105.183c-5.03,0-5.014-3.401.035-7.559l30.068-24.757c5.049-4.157,11.654-7.563,14.678-7.568l128.093-.216c3.024-.005,9.239,3.412,13.811,7.594l27.229,24.903c4.572,4.182,4.198,7.603-.832,7.603Z"/><path class="cls-19" d="M318.266,320.141H105.183c-5.03,0-5.014-3.401.035-7.559l30.068-24.757c5.049-4.157,11.654-7.563,14.678-7.568l128.093-.216c3.024-.005,9.239,3.412,13.811,7.594l27.229,24.903c4.572,4.182,4.198,7.603-.832,7.603Z"/><path class="cls-6" d="M318.266,320.048H105.183c-5.03,0-5.014-3.401.035-7.559l30.068-24.757c5.049-4.157,11.654-7.563,14.678-7.568l128.093-.216c3.024-.005,9.239,3.412,13.811,7.594l27.229,24.903c4.572,4.182,4.198,7.603-.832,7.603Z"/><path class="cls-19" d="M318.266,320.048H105.183c-5.03,0-5.014-3.401.035-7.559l30.068-24.757c5.049-4.157,11.654-7.563,14.678-7.568l128.093-.216c3.024-.005,9.239,3.412,13.811,7.594l27.229,24.903c4.572,4.182,4.198,7.603-.832,7.603Z"/><path class="cls-6" d="M318.266,319.955H105.183c-5.03,0-5.014-3.401.035-7.559l30.068-24.757c5.049-4.157,11.654-7.563,14.678-7.568l128.093-.216c3.024-.005,9.239,3.412,13.811,7.594l27.229,24.903c4.572,4.182,4.198,7.603-.832,7.603Z"/><path class="cls-19" d="M318.266,319.955H105.183c-5.03,0-5.014-3.401.035-7.559l30.068-24.757c5.049-4.157,11.654-7.563,14.678-7.568l128.093-.216c3.024-.005,9.239,3.412,13.811,7.594l27.229,24.903c4.572,4.182,4.198,7.603-.832,7.603Z"/><path class="cls-6" d="M318.266,319.861H105.183c-5.03,0-5.014-3.401.035-7.559l30.068-24.757c5.049-4.157,11.654-7.563,14.678-7.568l128.093-.216c3.024-.005,9.239,3.412,13.811,7.594l27.229,24.903c4.572,4.182,4.198,7.603-.832,7.603Z"/><path class="cls-19" d="M318.266,319.861H105.183c-5.03,0-5.014-3.401.035-7.559l30.068-24.757c5.049-4.157,11.654-7.563,14.678-7.568l128.093-.216c3.024-.005,9.239,3.412,13.811,7.594l27.229,24.903c4.572,4.182,4.198,7.603-.832,7.603Z"/><path class="cls-6" d="M318.266,319.768H105.183c-5.03,0-5.014-3.401.035-7.559l30.068-24.757c5.049-4.157,11.654-7.563,14.678-7.568l128.093-.216c3.024-.005,9.239,3.412,13.811,7.594l27.229,24.903c4.572,4.182,4.198,7.603-.832,7.603Z"/><path class="cls-19" d="M318.266,319.768H105.183c-5.03,0-5.014-3.401.035-7.559l30.068-24.757c5.049-4.157,11.654-7.563,14.678-7.568l128.093-.216c3.024-.005,9.239,3.412,13.811,7.594l27.229,24.903c4.572,4.182,4.198,7.603-.832,7.603Z"/><path class="cls-6" d="M318.266,319.675H105.183c-5.03,0-5.014-3.401.035-7.559l30.068-24.757c5.049-4.157,11.654-7.563,14.678-7.568l128.093-.216c3.024-.005,9.239,3.412,13.811,7.594l27.229,24.903c4.572,4.182,4.198,7.603-.832,7.603Z"/><path class="cls-19" d="M318.266,319.675H105.183c-5.03,0-5.014-3.401.035-7.559l30.068-24.757c5.049-4.157,11.654-7.563,14.678-7.568l128.093-.216c3.024-.005,9.239,3.412,13.811,7.594l27.229,24.903c4.572,4.182,4.198,7.603-.832,7.603Z"/><path class="cls-6" d="M318.266,319.581H105.183c-5.03,0-5.014-3.401.035-7.559l30.068-24.757c5.049-4.157,11.654-7.563,14.678-7.568l128.093-.216c3.024-.005,9.239,3.412,13.811,7.594l27.229,24.903c4.572,4.182,4.198,7.603-.832,7.603Z"/><path class="cls-19" d="M318.266,319.581H105.183c-5.03,0-5.014-3.401.035-7.559l30.068-24.757c5.049-4.157,11.654-7.563,14.678-7.568l128.093-.216c3.024-.005,9.239,3.412,13.811,7.594l27.229,24.903c4.572,4.182,4.198,7.603-.832,7.603Z"/><path class="cls-6" d="M318.266,319.488H105.183c-5.03,0-5.014-3.401.035-7.559l30.068-24.757c5.049-4.157,11.654-7.563,14.678-7.568l128.093-.216c3.024-.005,9.239,3.412,13.811,7.594l27.229,24.903c4.572,4.182,4.198,7.603-.832,7.603Z"/><path class="cls-19" d="M318.266,319.488H105.183c-5.03,0-5.014-3.401.035-7.559l30.068-24.757c5.049-4.157,11.654-7.563,14.678-7.568l128.093-.216c3.024-.005,9.239,3.412,13.811,7.594l27.229,24.903c4.572,4.182,4.198,7.603-.832,7.603Z"/><path class="cls-6" d="M318.266,319.395H105.183c-5.03,0-5.014-3.401.035-7.559l30.068-24.757c5.049-4.157,11.654-7.563,14.678-7.568l128.093-.216c3.024-.005,9.239,3.412,13.811,7.594l27.229,24.903c4.572,4.182,4.198,7.603-.832,7.603Z"/><path class="cls-19" d="M318.266,319.395H105.183c-5.03,0-5.014-3.401.035-7.559l30.068-24.757c5.049-4.157,11.654-7.563,14.678-7.568l128.093-.216c3.024-.005,9.239,3.412,13.811,7.594l27.229,24.903c4.572,4.182,4.198,7.603-.832,7.603Z"/><path class="cls-6" d="M318.266,319.302H105.183c-5.03,0-5.014-3.401.035-7.559l30.068-24.757c5.049-4.157,11.654-7.563,14.678-7.568l128.093-.216c3.024-.005,9.239,3.412,13.811,7.594l27.229,24.903c4.572,4.182,4.198,7.603-.832,7.603Z"/><path class="cls-19" d="M318.266,319.302H105.183c-5.03,0-5.014-3.401.035-7.559l30.068-24.757c5.049-4.157,11.654-7.563,14.678-7.568l128.093-.216c3.024-.005,9.239,3.412,13.811,7.594l27.229,24.903c4.572,4.182,4.198,7.603-.832,7.603Z"/><path class="cls-6" d="M318.266,319.208H105.183c-5.03,0-5.014-3.401.035-7.559l30.068-24.757c5.049-4.157,11.654-7.563,14.678-7.568l128.093-.216c3.024-.005,9.239,3.412,13.811,7.594l27.229,24.903c4.572,4.182,4.198,7.603-.832,7.603Z"/><path class="cls-19" d="M318.266,319.208H105.183c-5.03,0-5.014-3.401.035-7.559l30.068-24.757c5.049-4.157,11.654-7.563,14.678-7.568l128.093-.216c3.024-.005,9.239,3.412,13.811,7.594l27.229,24.903c4.572,4.182,4.198,7.603-.832,7.603Z"/><path class="cls-6" d="M318.266,319.115H105.183c-5.03,0-5.014-3.401.035-7.559l30.068-24.757c5.049-4.157,11.654-7.563,14.678-7.568l128.093-.216c3.024-.005,9.239,3.412,13.811,7.594l27.229,24.903c4.572,4.182,4.198,7.603-.832,7.603Z"/><path class="cls-19" d="M318.266,319.115H105.183c-5.03,0-5.014-3.401.035-7.559l30.068-24.757c5.049-4.157,11.654-7.563,14.678-7.568l128.093-.216c3.024-.005,9.239,3.412,13.811,7.594l27.229,24.903c4.572,4.182,4.198,7.603-.832,7.603Z"/><path class="cls-6" d="M318.266,319.022H105.183c-5.03,0-5.014-3.401.035-7.559l30.068-24.757c5.049-4.157,11.654-7.563,14.678-7.568l128.093-.216c3.024-.005,9.239,3.412,13.811,7.594l27.229,24.903c4.572,4.182,4.198,7.603-.832,7.603Z"/><path class="cls-19" d="M318.266,319.022H105.183c-5.03,0-5.014-3.401.035-7.559l30.068-24.757c5.049-4.157,11.654-7.563,14.678-7.568l128.093-.216c3.024-.005,9.239,3.412,13.811,7.594l27.229,24.903c4.572,4.182,4.198,7.603-.832,7.603Z"/><path class="cls-6" d="M318.266,318.928H105.183c-5.03,0-5.014-3.401.035-7.559l30.068-24.757c5.049-4.157,11.654-7.563,14.678-7.568l128.093-.216c3.024-.005,9.239,3.412,13.811,7.594l27.229,24.903c4.572,4.182,4.198,7.603-.832,7.603Z"/><path class="cls-19" d="M318.266,318.928H105.183c-5.03,0-5.014-3.401.035-7.559l30.068-24.757c5.049-4.157,11.654-7.563,14.678-7.568l128.093-.216c3.024-.005,9.239,3.412,13.811,7.594l27.229,24.903c4.572,4.182,4.198,7.603-.832,7.603Z"/><path class="cls-6" d="M318.266,318.835H105.183c-5.03,0-5.014-3.401.035-7.559l30.068-24.757c5.049-4.157,11.654-7.563,14.678-7.568l128.093-.216c3.024-.005,9.239,3.412,13.811,7.594l27.229,24.903c4.572,4.182,4.198,7.603-.832,7.603Z"/><path class="cls-19" d="M318.266,318.835H105.183c-5.03,0-5.014-3.401.035-7.559l30.068-24.757c5.049-4.157,11.654-7.563,14.678-7.568l128.093-.216c3.024-.005,9.239,3.412,13.811,7.594l27.229,24.903c4.572,4.182,4.198,7.603-.832,7.603Z"/><path class="cls-6" d="M318.266,318.742H105.183c-5.03,0-5.014-3.401.035-7.559l30.068-24.757c5.049-4.157,11.654-7.563,14.678-7.568l128.093-.216c3.024-.005,9.239,3.412,13.811,7.594l27.229,24.903c4.572,4.182,4.198,7.603-.832,7.603Z"/><path class="cls-19" d="M318.266,318.742H105.183c-5.03,0-5.014-3.401.035-7.559l30.068-24.757c5.049-4.157,11.654-7.563,14.678-7.568l128.093-.216c3.024-.005,9.239,3.412,13.811,7.594l27.229,24.903c4.572,4.182,4.198,7.603-.832,7.603Z"/><path class="cls-6" d="M318.266,318.648H105.183c-5.03,0-5.014-3.401.035-7.559l30.068-24.757c5.049-4.157,11.654-7.563,14.678-7.568l128.093-.216c3.024-.005,9.239,3.412,13.811,7.594l27.229,24.903c4.572,4.182,4.198,7.603-.832,7.603Z"/><path class="cls-19" d="M318.266,318.648H105.183c-5.03,0-5.014-3.401.035-7.559l30.068-24.757c5.049-4.157,11.654-7.563,14.678-7.568l128.093-.216c3.024-.005,9.239,3.412,13.811,7.594l27.229,24.903c4.572,4.182,4.198,7.603-.832,7.603Z"/><path class="cls-6" d="M318.266,318.555H105.183c-5.03,0-5.014-3.401.035-7.559l30.068-24.757c5.049-4.157,11.654-7.563,14.678-7.568l128.093-.216c3.024-.005,9.239,3.412,13.811,7.594l27.229,24.903c4.572,4.182,4.198,7.603-.832,7.603Z"/><path class="cls-19" d="M318.266,318.555H105.183c-5.03,0-5.014-3.401.035-7.559l30.068-24.757c5.049-4.157,11.654-7.563,14.678-7.568l128.093-.216c3.024-.005,9.239,3.412,13.811,7.594l27.229,24.903c4.572,4.182,4.198,7.603-.832,7.603Z"/><path class="cls-6" d="M318.266,318.462H105.183c-5.03,0-5.014-3.401.035-7.559l30.068-24.757c5.049-4.157,11.654-7.563,14.678-7.568l128.093-.216c3.024-.005,9.239,3.412,13.811,7.594l27.229,24.903c4.572,4.182,4.198,7.603-.832,7.603Z"/><path class="cls-19" d="M318.266,318.462H105.183c-5.03,0-5.014-3.401.035-7.559l30.068-24.757c5.049-4.157,11.654-7.563,14.678-7.568l128.093-.216c3.024-.005,9.239,3.412,13.811,7.594l27.229,24.903c4.572,4.182,4.198,7.603-.832,7.603Z"/><path class="cls-6" d="M318.266,318.368H105.183c-5.03,0-5.014-3.401.035-7.559l30.068-24.757c5.049-4.157,11.654-7.563,14.678-7.568l128.093-.216c3.024-.005,9.239,3.412,13.811,7.594l27.229,24.903c4.572,4.182,4.198,7.603-.832,7.603Z"/><path class="cls-19" d="M318.266,318.368H105.183c-5.03,0-5.014-3.401.035-7.559l30.068-24.757c5.049-4.157,11.654-7.563,14.678-7.568l128.093-.216c3.024-.005,9.239,3.412,13.811,7.594l27.229,24.903c4.572,4.182,4.198,7.603-.832,7.603Z"/><path class="cls-6" d="M318.266,318.275H105.183c-5.03,0-5.014-3.401.035-7.559l30.068-24.757c5.049-4.157,11.654-7.563,14.678-7.568l128.093-.216c3.024-.005,9.239,3.412,13.811,7.594l27.229,24.903c4.572,4.182,4.198,7.603-.832,7.603Z"/><path class="cls-19" d="M318.266,318.275H105.183c-5.03,0-5.014-3.401.035-7.559l30.068-24.757c5.049-4.157,11.654-7.563,14.678-7.568l128.093-.216c3.024-.005,9.239,3.412,13.811,7.594l27.229,24.903c4.572,4.182,4.198,7.603-.832,7.603Z"/><path class="cls-6" d="M318.266,318.182H105.183c-5.03,0-5.014-3.401.035-7.559l30.068-24.757c5.049-4.157,11.654-7.563,14.678-7.568l128.093-.216c3.024-.005,9.239,3.412,13.811,7.594l27.229,24.903c4.572,4.182,4.198,7.603-.832,7.603Z"/><path class="cls-19" d="M318.266,318.182H105.183c-5.03,0-5.014-3.401.035-7.559l30.068-24.757c5.049-4.157,11.654-7.563,14.678-7.568l128.093-.216c3.024-.005,9.239,3.412,13.811,7.594l27.229,24.903c4.572,4.182,4.198,7.603-.832,7.603Z"/><path class="cls-6" d="M318.266,318.089H105.183c-5.03,0-5.014-3.401.035-7.559l30.068-24.757c5.049-4.157,11.654-7.563,14.678-7.568l128.093-.216c3.024-.005,9.239,3.412,13.811,7.594l27.229,24.903c4.572,4.182,4.198,7.603-.832,7.603Z"/><path class="cls-19" d="M318.266,318.089H105.183c-5.03,0-5.014-3.401.035-7.559l30.068-24.757c5.049-4.157,11.654-7.563,14.678-7.568l128.093-.216c3.024-.005,9.239,3.412,13.811,7.594l27.229,24.903c4.572,4.182,4.198,7.603-.832,7.603Z"/><path class="cls-6" d="M318.266,317.995H105.183c-5.03,0-5.014-3.401.035-7.559l30.068-24.757c5.049-4.157,11.654-7.563,14.678-7.568l128.093-.216c3.024-.005,9.239,3.412,13.811,7.594l27.229,24.903c4.572,4.182,4.198,7.603-.832,7.603Z"/><path class="cls-19" d="M318.266,317.995H105.183c-5.03,0-5.014-3.401.035-7.559l30.068-24.757c5.049-4.157,11.654-7.563,14.678-7.568l128.093-.216c3.024-.005,9.239,3.412,13.811,7.594l27.229,24.903c4.572,4.182,4.198,7.603-.832,7.603Z"/><path class="cls-6" d="M318.266,317.902H105.183c-5.03,0-5.014-3.401.035-7.559l30.068-24.757c5.049-4.157,11.654-7.563,14.678-7.568l128.093-.216c3.024-.005,9.239,3.412,13.811,7.594l27.229,24.903c4.572,4.182,4.198,7.603-.832,7.603Z"/><path class="cls-19" d="M318.266,317.902H105.183c-5.03,0-5.014-3.401.035-7.559l30.068-24.757c5.049-4.157,11.654-7.563,14.678-7.568l128.093-.216c3.024-.005,9.239,3.412,13.811,7.594l27.229,24.903c4.572,4.182,4.198,7.603-.832,7.603Z"/><path class="cls-6" d="M318.266,317.809H105.183c-5.03,0-5.014-3.401.035-7.559l30.068-24.757c5.049-4.157,11.654-7.563,14.678-7.568l128.093-.216c3.024-.005,9.239,3.412,13.811,7.594l27.229,24.903c4.572,4.182,4.198,7.603-.832,7.603Z"/><path class="cls-19" d="M318.266,317.809H105.183c-5.03,0-5.014-3.401.035-7.559l30.068-24.757c5.049-4.157,11.654-7.563,14.678-7.568l128.093-.216c3.024-.005,9.239,3.412,13.811,7.594l27.229,24.903c4.572,4.182,4.198,7.603-.832,7.603Z"/><path class="cls-6" d="M318.266,317.715H105.183c-5.03,0-5.014-3.401.035-7.559l30.068-24.757c5.049-4.157,11.654-7.563,14.678-7.568l128.093-.216c3.024-.005,9.239,3.412,13.811,7.594l27.229,24.903c4.572,4.182,4.198,7.603-.832,7.603Z"/><path class="cls-19" d="M318.266,317.715H105.183c-5.03,0-5.014-3.401.035-7.559l30.068-24.757c5.049-4.157,11.654-7.563,14.678-7.568l128.093-.216c3.024-.005,9.239,3.412,13.811,7.594l27.229,24.903c4.572,4.182,4.198,7.603-.832,7.603Z"/><path class="cls-6" d="M318.266,317.622H105.183c-5.03,0-5.014-3.401.035-7.559l30.068-24.757c5.049-4.157,11.654-7.563,14.678-7.568l128.093-.216c3.024-.005,9.239,3.412,13.811,7.594l27.229,24.903c4.572,4.182,4.198,7.603-.832,7.603Z"/><path class="cls-19" d="M318.266,317.622H105.183c-5.03,0-5.014-3.401.035-7.559l30.068-24.757c5.049-4.157,11.654-7.563,14.678-7.568l128.093-.216c3.024-.005,9.239,3.412,13.811,7.594l27.229,24.903c4.572,4.182,4.198,7.603-.832,7.603Z"/><path class="cls-6" d="M318.266,317.529H105.183c-5.03,0-5.014-3.401.035-7.559l30.068-24.757c5.049-4.157,11.654-7.563,14.678-7.568l128.093-.216c3.024-.005,9.239,3.412,13.811,7.594l27.229,24.903c4.572,4.182,4.198,7.603-.832,7.603Z"/><path class="cls-19" d="M318.266,317.529H105.183c-5.03,0-5.014-3.401.035-7.559l30.068-24.757c5.049-4.157,11.654-7.563,14.678-7.568l128.093-.216c3.024-.005,9.239,3.412,13.811,7.594l27.229,24.903c4.572,4.182,4.198,7.603-.832,7.603Z"/><path class="cls-6" d="M318.266,317.435H105.183c-5.03,0-5.014-3.401.035-7.559l30.068-24.757c5.049-4.157,11.654-7.563,14.678-7.568l128.093-.216c3.024-.005,9.239,3.412,13.811,7.594l27.229,24.903c4.572,4.182,4.198,7.603-.832,7.603Z"/><path class="cls-19" d="M318.266,317.435H105.183c-5.03,0-5.014-3.401.035-7.559l30.068-24.757c5.049-4.157,11.654-7.563,14.678-7.568l128.093-.216c3.024-.005,9.239,3.412,13.811,7.594l27.229,24.903c4.572,4.182,4.198,7.603-.832,7.603Z"/><path class="cls-6" d="M318.266,317.342H105.183c-5.03,0-5.014-3.401.035-7.559l30.068-24.757c5.049-4.157,11.654-7.563,14.678-7.568l128.093-.216c3.024-.005,9.239,3.412,13.811,7.594l27.229,24.903c4.572,4.182,4.198,7.603-.832,7.603Z"/><path class="cls-19" d="M318.266,317.342H105.183c-5.03,0-5.014-3.401.035-7.559l30.068-24.757c5.049-4.157,11.654-7.563,14.678-7.568l128.093-.216c3.024-.005,9.239,3.412,13.811,7.594l27.229,24.903c4.572,4.182,4.198,7.603-.832,7.603Z"/><path class="cls-6" d="M318.266,317.249H105.183c-5.03,0-5.014-3.401.035-7.559l30.068-24.757c5.049-4.157,11.654-7.563,14.678-7.568l128.093-.216c3.024-.005,9.239,3.412,13.811,7.594l27.229,24.903c4.572,4.182,4.198,7.603-.832,7.603Z"/><path class="cls-19" d="M318.266,317.249H105.183c-5.03,0-5.014-3.401.035-7.559l30.068-24.757c5.049-4.157,11.654-7.563,14.678-7.568l128.093-.216c3.024-.005,9.239,3.412,13.811,7.594l27.229,24.903c4.572,4.182,4.198,7.603-.832,7.603Z"/><path class="cls-6" d="M318.266,317.155H105.183c-5.03,0-5.014-3.401.035-7.559l30.068-24.757c5.049-4.157,11.654-7.563,14.678-7.568l128.093-.216c3.024-.005,9.239,3.412,13.811,7.594l27.229,24.903c4.572,4.182,4.198,7.603-.832,7.603Z"/><path class="cls-19" d="M318.266,317.155H105.183c-5.03,0-5.014-3.401.035-7.559l30.068-24.757c5.049-4.157,11.654-7.563,14.678-7.568l128.093-.216c3.024-.005,9.239,3.412,13.811,7.594l27.229,24.903c4.572,4.182,4.198,7.603-.832,7.603Z"/><path class="cls-6" d="M318.266,317.062H105.183c-5.03,0-5.014-3.401.035-7.559l30.068-24.757c5.049-4.157,11.654-7.563,14.678-7.568l128.093-.216c3.024-.005,9.239,3.412,13.811,7.594l27.229,24.903c4.572,4.182,4.198,7.603-.832,7.603Z"/><path class="cls-19" d="M318.266,317.062H105.183c-5.03,0-5.014-3.401.035-7.559l30.068-24.757c5.049-4.157,11.654-7.563,14.678-7.568l128.093-.216c3.024-.005,9.239,3.412,13.811,7.594l27.229,24.903c4.572,4.182,4.198,7.603-.832,7.603Z"/><path class="cls-6" d="M318.266,316.969H105.183c-5.03,0-5.014-3.401.035-7.559l30.068-24.757c5.049-4.157,11.654-7.563,14.678-7.568l128.093-.216c3.024-.005,9.239,3.412,13.811,7.594l27.229,24.903c4.572,4.182,4.198,7.603-.832,7.603Z"/><path class="cls-19" d="M318.266,316.969H105.183c-5.03,0-5.014-3.401.035-7.559l30.068-24.757c5.049-4.157,11.654-7.563,14.678-7.568l128.093-.216c3.024-.005,9.239,3.412,13.811,7.594l27.229,24.903c4.572,4.182,4.198,7.603-.832,7.603Z"/><path class="cls-6" d="M318.266,316.876H105.183c-5.03,0-5.014-3.401.035-7.559l30.068-24.757c5.049-4.157,11.654-7.563,14.678-7.568l128.093-.216c3.024-.005,9.239,3.412,13.811,7.594l27.229,24.903c4.572,4.182,4.198,7.603-.832,7.603Z"/><path class="cls-19" d="M318.266,316.876H105.183c-5.03,0-5.014-3.401.035-7.559l30.068-24.757c5.049-4.157,11.654-7.563,14.678-7.568l128.093-.216c3.024-.005,9.239,3.412,13.811,7.594l27.229,24.903c4.572,4.182,4.198,7.603-.832,7.603Z"/><path class="cls-6" d="M318.266,316.782H105.183c-5.03,0-5.014-3.401.035-7.559l30.068-24.757c5.049-4.157,11.654-7.563,14.678-7.568l128.093-.216c3.024-.005,9.239,3.412,13.811,7.594l27.229,24.903c4.572,4.182,4.198,7.603-.832,7.603Z"/><path class="cls-19" d="M318.266,316.782H105.183c-5.03,0-5.014-3.401.035-7.559l30.068-24.757c5.049-4.157,11.654-7.563,14.678-7.568l128.093-.216c3.024-.005,9.239,3.412,13.811,7.594l27.229,24.903c4.572,4.182,4.198,7.603-.832,7.603Z"/><path class="cls-6" d="M318.266,316.689H105.183c-5.03,0-5.014-3.401.035-7.559l30.068-24.757c5.049-4.157,11.654-7.563,14.678-7.568l128.093-.216c3.024-.005,9.239,3.412,13.811,7.594l27.229,24.903c4.572,4.182,4.198,7.603-.832,7.603Z"/><path class="cls-19" d="M318.266,316.689H105.183c-5.03,0-5.014-3.401.035-7.559l30.068-24.757c5.049-4.157,11.654-7.563,14.678-7.568l128.093-.216c3.024-.005,9.239,3.412,13.811,7.594l27.229,24.903c4.572,4.182,4.198,7.603-.832,7.603Z"/><path class="cls-6" d="M318.266,316.596H105.183c-5.03,0-5.014-3.401.035-7.559l30.068-24.757c5.049-4.157,11.654-7.563,14.678-7.568l128.093-.216c3.024-.005,9.239,3.412,13.811,7.594l27.229,24.903c4.572,4.182,4.198,7.603-.832,7.603Z"/><path class="cls-19" d="M318.266,316.596H105.183c-5.03,0-5.014-3.401.035-7.559l30.068-24.757c5.049-4.157,11.654-7.563,14.678-7.568l128.093-.216c3.024-.005,9.239,3.412,13.811,7.594l27.229,24.903c4.572,4.182,4.198,7.603-.832,7.603Z"/><path class="cls-6" d="M318.266,316.502H105.183c-5.03,0-5.014-3.401.035-7.559l30.068-24.757c5.049-4.157,11.654-7.563,14.678-7.568l128.093-.216c3.024-.005,9.239,3.412,13.811,7.594l27.229,24.903c4.572,4.182,4.198,7.603-.832,7.603Z"/><path class="cls-19" d="M318.266,316.502H105.183c-5.03,0-5.014-3.401.035-7.559l30.068-24.757c5.049-4.157,11.654-7.563,14.678-7.568l128.093-.216c3.024-.005,9.239,3.412,13.811,7.594l27.229,24.903c4.572,4.182,4.198,7.603-.832,7.603Z"/><path class="cls-6" d="M318.266,316.409H105.183c-5.03,0-5.014-3.401.035-7.559l30.068-24.757c5.049-4.157,11.654-7.563,14.678-7.568l128.093-.216c3.024-.005,9.239,3.412,13.811,7.594l27.229,24.903c4.572,4.182,4.198,7.603-.832,7.603Z"/><path class="cls-19" d="M318.266,316.409H105.183c-5.03,0-5.014-3.401.035-7.559l30.068-24.757c5.049-4.157,11.654-7.563,14.678-7.568l128.093-.216c3.024-.005,9.239,3.412,13.811,7.594l27.229,24.903c4.572,4.182,4.198,7.603-.832,7.603Z"/><path class="cls-6" d="M318.266,316.316H105.183c-5.03,0-5.014-3.401.035-7.559l30.068-24.757c5.049-4.157,11.654-7.563,14.678-7.568l128.093-.216c3.024-.005,9.239,3.412,13.811,7.594l27.229,24.903c4.572,4.182,4.198,7.603-.832,7.603Z"/><path class="cls-19" d="M318.266,316.316H105.183c-5.03,0-5.014-3.401.035-7.559l30.068-24.757c5.049-4.157,11.654-7.563,14.678-7.568l128.093-.216c3.024-.005,9.239,3.412,13.811,7.594l27.229,24.903c4.572,4.182,4.198,7.603-.832,7.603Z"/><path class="cls-6" d="M318.266,316.222H105.183c-5.03,0-5.014-3.401.035-7.559l30.068-24.757c5.049-4.157,11.654-7.563,14.678-7.568l128.093-.216c3.024-.005,9.239,3.412,13.811,7.594l27.229,24.903c4.572,4.182,4.198,7.603-.832,7.603Z"/><path class="cls-19" d="M318.266,316.222H105.183c-5.03,0-5.014-3.401.035-7.559l30.068-24.757c5.049-4.157,11.654-7.563,14.678-7.568l128.093-.216c3.024-.005,9.239,3.412,13.811,7.594l27.229,24.903c4.572,4.182,4.198,7.603-.832,7.603Z"/><path class="cls-6" d="M318.266,316.129H105.183c-5.03,0-5.014-3.401.035-7.559l30.068-24.757c5.049-4.157,11.654-7.563,14.678-7.568l128.093-.216c3.024-.005,9.239,3.412,13.811,7.594l27.229,24.903c4.572,4.182,4.198,7.603-.832,7.603Z"/><path class="cls-19" d="M318.266,316.129H105.183c-5.03,0-5.014-3.401.035-7.559l30.068-24.757c5.049-4.157,11.654-7.563,14.678-7.568l128.093-.216c3.024-.005,9.239,3.412,13.811,7.594l27.229,24.903c4.572,4.182,4.198,7.603-.832,7.603Z"/><path class="cls-6" d="M318.266,316.036H105.183c-5.03,0-5.014-3.401.035-7.559l30.068-24.757c5.049-4.157,11.654-7.563,14.678-7.568l128.093-.216c3.024-.005,9.239,3.412,13.811,7.594l27.229,24.903c4.572,4.182,4.198,7.603-.832,7.603Z"/><path class="cls-19" d="M318.266,316.036H105.183c-5.03,0-5.014-3.401.035-7.559l30.068-24.757c5.049-4.157,11.654-7.563,14.678-7.568l128.093-.216c3.024-.005,9.239,3.412,13.811,7.594l27.229,24.903c4.572,4.182,4.198,7.603-.832,7.603Z"/><path class="cls-6" d="M318.266,315.942H105.183c-5.03,0-5.014-3.401.035-7.559l30.068-24.757c5.049-4.157,11.654-7.563,14.678-7.568l128.093-.216c3.024-.005,9.239,3.412,13.811,7.594l27.229,24.903c4.572,4.182,4.198,7.603-.832,7.603Z"/><path class="cls-19" d="M318.266,315.942H105.183c-5.03,0-5.014-3.401.035-7.559l30.068-24.757c5.049-4.157,11.654-7.563,14.678-7.568l128.093-.216c3.024-.005,9.239,3.412,13.811,7.594l27.229,24.903c4.572,4.182,4.198,7.603-.832,7.603Z"/><path class="cls-6" d="M318.266,315.849H105.183c-5.03,0-5.014-3.401.035-7.559l30.068-24.757c5.049-4.157,11.654-7.563,14.678-7.568l128.093-.216c3.024-.005,9.239,3.412,13.811,7.594l27.229,24.903c4.572,4.182,4.198,7.603-.832,7.603Z"/><path class="cls-19" d="M318.266,315.849H105.183c-5.03,0-5.014-3.401.035-7.559l30.068-24.757c5.049-4.157,11.654-7.563,14.678-7.568l128.093-.216c3.024-.005,9.239,3.412,13.811,7.594l27.229,24.903c4.572,4.182,4.198,7.603-.832,7.603Z"/><path class="cls-6" d="M318.266,315.756H105.183c-5.03,0-5.014-3.401.035-7.559l30.068-24.757c5.049-4.157,11.654-7.563,14.678-7.568l128.093-.216c3.024-.005,9.239,3.412,13.811,7.594l27.229,24.903c4.572,4.182,4.198,7.603-.832,7.603Z"/><path class="cls-19" d="M318.266,315.756H105.183c-5.03,0-5.014-3.401.035-7.559l30.068-24.757c5.049-4.157,11.654-7.563,14.678-7.568l128.093-.216c3.024-.005,9.239,3.412,13.811,7.594l27.229,24.903c4.572,4.182,4.198,7.603-.832,7.603Z"/><path class="cls-6" d="M318.266,315.663H105.183c-5.03,0-5.014-3.401.035-7.559l30.068-24.757c5.049-4.157,11.654-7.563,14.678-7.568l128.093-.216c3.024-.005,9.239,3.412,13.811,7.594l27.229,24.903c4.572,4.182,4.198,7.603-.832,7.603Z"/><path class="cls-19" d="M318.266,315.663H105.183c-5.03,0-5.014-3.401.035-7.559l30.068-24.757c5.049-4.157,11.654-7.563,14.678-7.568l128.093-.216c3.024-.005,9.239,3.412,13.811,7.594l27.229,24.903c4.572,4.182,4.198,7.603-.832,7.603Z"/><path class="cls-6" d="M318.266,315.569H105.183c-5.03,0-5.014-3.401.035-7.559l30.068-24.757c5.049-4.157,11.654-7.563,14.678-7.568l128.093-.216c3.024-.005,9.239,3.412,13.811,7.594l27.229,24.903c4.572,4.182,4.198,7.603-.832,7.603Z"/><path class="cls-19" d="M318.266,315.569H105.183c-5.03,0-5.014-3.401.035-7.559l30.068-24.757c5.049-4.157,11.654-7.563,14.678-7.568l128.093-.216c3.024-.005,9.239,3.412,13.811,7.594l27.229,24.903c4.572,4.182,4.198,7.603-.832,7.603Z"/><path class="cls-6" d="M318.266,315.476H105.183c-5.03,0-5.014-3.401.035-7.559l30.068-24.757c5.049-4.157,11.654-7.563,14.678-7.568l128.093-.216c3.024-.005,9.239,3.412,13.811,7.594l27.229,24.903c4.572,4.182,4.198,7.603-.832,7.603Z"/><path class="cls-19" d="M318.266,315.476H105.183c-5.03,0-5.014-3.401.035-7.559l30.068-24.757c5.049-4.157,11.654-7.563,14.678-7.568l128.093-.216c3.024-.005,9.239,3.412,13.811,7.594l27.229,24.903c4.572,4.182,4.198,7.603-.832,7.603Z"/><path class="cls-6" d="M318.266,315.383H105.183c-5.03,0-5.014-3.401.035-7.559l30.068-24.757c5.049-4.157,11.654-7.563,14.678-7.568l128.093-.216c3.024-.005,9.239,3.412,13.811,7.594l27.229,24.903c4.572,4.182,4.198,7.603-.832,7.603Z"/><path class="cls-19" d="M318.266,315.383H105.183c-5.03,0-5.014-3.401.035-7.559l30.068-24.757c5.049-4.157,11.654-7.563,14.678-7.568l128.093-.216c3.024-.005,9.239,3.412,13.811,7.594l27.229,24.903c4.572,4.182,4.198,7.603-.832,7.603Z"/><path class="cls-6" d="M318.266,315.289H105.183c-5.03,0-5.014-3.401.035-7.559l30.068-24.757c5.049-4.157,11.654-7.563,14.678-7.568l128.093-.216c3.024-.005,9.239,3.412,13.811,7.594l27.229,24.903c4.572,4.182,4.198,7.603-.832,7.603Z"/><path class="cls-19" d="M318.266,315.289H105.183c-5.03,0-5.014-3.401.035-7.559l30.068-24.757c5.049-4.157,11.654-7.563,14.678-7.568l128.093-.216c3.024-.005,9.239,3.412,13.811,7.594l27.229,24.903c4.572,4.182,4.198,7.603-.832,7.603Z"/><path class="cls-6" d="M318.266,315.196H105.183c-5.03,0-5.014-3.401.035-7.559l30.068-24.757c5.049-4.157,11.654-7.563,14.678-7.568l128.093-.216c3.024-.005,9.239,3.412,13.811,7.594l27.229,24.903c4.572,4.182,4.198,7.603-.832,7.603Z"/><path class="cls-19" d="M318.266,315.196H105.183c-5.03,0-5.014-3.401.035-7.559l30.068-24.757c5.049-4.157,11.654-7.563,14.678-7.568l128.093-.216c3.024-.005,9.239,3.412,13.811,7.594l27.229,24.903c4.572,4.182,4.198,7.603-.832,7.603Z"/><path class="cls-6" d="M318.266,315.103H105.183c-5.03,0-5.014-3.401.035-7.559l30.068-24.757c5.049-4.157,11.654-7.563,14.678-7.568l128.093-.216c3.024-.005,9.239,3.412,13.811,7.594l27.229,24.903c4.572,4.182,4.198,7.603-.832,7.603Z"/><path class="cls-19" d="M318.266,315.103H105.183c-5.03,0-5.014-3.401.035-7.559l30.068-24.757c5.049-4.157,11.654-7.563,14.678-7.568l128.093-.216c3.024-.005,9.239,3.412,13.811,7.594l27.229,24.903c4.572,4.182,4.198,7.603-.832,7.603Z"/><path class="cls-6" d="M318.266,315.009H105.183c-5.03,0-5.014-3.401.035-7.559l30.068-24.757c5.049-4.157,11.654-7.563,14.678-7.568l128.093-.216c3.024-.005,9.239,3.412,13.811,7.594l27.229,24.903c4.572,4.182,4.198,7.603-.832,7.603Z"/><path class="cls-19" d="M318.266,315.009H105.183c-5.03,0-5.014-3.401.035-7.559l30.068-24.757c5.049-4.157,11.654-7.563,14.678-7.568l128.093-.216c3.024-.005,9.239,3.412,13.811,7.594l27.229,24.903c4.572,4.182,4.198,7.603-.832,7.603Z"/><path class="cls-6" d="M318.266,314.916H105.183c-5.03,0-5.014-3.401.035-7.559l30.068-24.757c5.049-4.157,11.654-7.563,14.678-7.568l128.093-.216c3.024-.005,9.239,3.412,13.811,7.594l27.229,24.903c4.572,4.182,4.198,7.603-.832,7.603Z"/><path class="cls-19" d="M318.266,314.916H105.183c-5.03,0-5.014-3.401.035-7.559l30.068-24.757c5.049-4.157,11.654-7.563,14.678-7.568l128.093-.216c3.024-.005,9.239,3.412,13.811,7.594l27.229,24.903c4.572,4.182,4.198,7.603-.832,7.603Z"/><path class="cls-6" d="M318.266,314.823H105.183c-5.03,0-5.014-3.401.035-7.559l30.068-24.757c5.049-4.157,11.654-7.563,14.678-7.568l128.093-.216c3.024-.005,9.239,3.412,13.811,7.594l27.229,24.903c4.572,4.182,4.198,7.603-.832,7.603Z"/><path class="cls-19" d="M318.266,314.823H105.183c-5.03,0-5.014-3.401.035-7.559l30.068-24.757c5.049-4.157,11.654-7.563,14.678-7.568l128.093-.216c3.024-.005,9.239,3.412,13.811,7.594l27.229,24.903c4.572,4.182,4.198,7.603-.832,7.603Z"/><path class="cls-6" d="M318.266,314.729H105.183c-5.03,0-5.014-3.401.035-7.559l30.068-24.757c5.049-4.157,11.654-7.563,14.678-7.568l128.093-.216c3.024-.005,9.239,3.412,13.811,7.594l27.229,24.903c4.572,4.182,4.198,7.603-.832,7.603Z"/><path class="cls-19" d="M318.266,314.729H105.183c-5.03,0-5.014-3.401.035-7.559l30.068-24.757c5.049-4.157,11.654-7.563,14.678-7.568l128.093-.216c3.024-.005,9.239,3.412,13.811,7.594l27.229,24.903c4.572,4.182,4.198,7.603-.832,7.603Z"/><path class="cls-6" d="M318.266,314.636H105.183c-5.03,0-5.014-3.401.035-7.559l30.068-24.757c5.049-4.157,11.654-7.563,14.678-7.568l128.093-.216c3.024-.005,9.239,3.412,13.811,7.594l27.229,24.903c4.572,4.182,4.198,7.603-.832,7.603Z"/><path class="cls-19" d="M318.266,314.636H105.183c-5.03,0-5.014-3.401.035-7.559l30.068-24.757c5.049-4.157,11.654-7.563,14.678-7.568l128.093-.216c3.024-.005,9.239,3.412,13.811,7.594l27.229,24.903c4.572,4.182,4.198,7.603-.832,7.603Z"/><path class="cls-6" d="M318.266,314.543H105.183c-5.03,0-5.014-3.401.035-7.559l30.068-24.757c5.049-4.157,11.654-7.563,14.678-7.568l128.093-.216c3.024-.005,9.239,3.412,13.811,7.594l27.229,24.903c4.572,4.182,4.198,7.603-.832,7.603Z"/><path class="cls-19" d="M318.266,314.543H105.183c-5.03,0-5.014-3.401.035-7.559l30.068-24.757c5.049-4.157,11.654-7.563,14.678-7.568l128.093-.216c3.024-.005,9.239,3.412,13.811,7.594l27.229,24.903c4.572,4.182,4.198,7.603-.832,7.603Z"/><path class="cls-6" d="M318.266,314.45H105.183c-5.03,0-5.014-3.401.035-7.559l30.068-24.757c5.049-4.157,11.654-7.563,14.678-7.568l128.093-.216c3.024-.005,9.239,3.412,13.811,7.594l27.229,24.903c4.572,4.182,4.198,7.603-.832,7.603Z"/><path class="cls-19" d="M318.266,314.45H105.183c-5.03,0-5.014-3.401.035-7.559l30.068-24.757c5.049-4.157,11.654-7.563,14.678-7.568l128.093-.216c3.024-.005,9.239,3.412,13.811,7.594l27.229,24.903c4.572,4.182,4.198,7.603-.832,7.603Z"/><path class="cls-6" d="M318.266,314.356H105.183c-5.03,0-5.014-3.401.035-7.559l30.068-24.757c5.049-4.157,11.654-7.563,14.678-7.568l128.093-.216c3.024-.005,9.239,3.412,13.811,7.594l27.229,24.903c4.572,4.182,4.198,7.603-.832,7.603Z"/><path class="cls-19" d="M318.266,314.356H105.183c-5.03,0-5.014-3.401.035-7.559l30.068-24.757c5.049-4.157,11.654-7.563,14.678-7.568l128.093-.216c3.024-.005,9.239,3.412,13.811,7.594l27.229,24.903c4.572,4.182,4.198,7.603-.832,7.603Z"/><path class="cls-6" d="M318.266,314.263H105.183c-5.03,0-5.014-3.401.035-7.559l30.068-24.757c5.049-4.157,11.654-7.563,14.678-7.568l128.093-.216c3.024-.005,9.239,3.412,13.811,7.594l27.229,24.903c4.572,4.182,4.198,7.603-.832,7.603Z"/><path class="cls-19" d="M318.266,314.263H105.183c-5.03,0-5.014-3.401.035-7.559l30.068-24.757c5.049-4.157,11.654-7.563,14.678-7.568l128.093-.216c3.024-.005,9.239,3.412,13.811,7.594l27.229,24.903c4.572,4.182,4.198,7.603-.832,7.603Z"/><path class="cls-6" d="M318.266,314.17H105.183c-5.03,0-5.014-3.401.035-7.559l30.068-24.757c5.049-4.157,11.654-7.563,14.678-7.568l128.093-.216c3.024-.005,9.239,3.412,13.811,7.594l27.229,24.903c4.572,4.182,4.198,7.603-.832,7.603Z"/><path class="cls-19" d="M318.266,314.17H105.183c-5.03,0-5.014-3.401.035-7.559l30.068-24.757c5.049-4.157,11.654-7.563,14.678-7.568l128.093-.216c3.024-.005,9.239,3.412,13.811,7.594l27.229,24.903c4.572,4.182,4.198,7.603-.832,7.603Z"/><path class="cls-6" d="M318.266,314.076H105.183c-5.03,0-5.014-3.401.035-7.559l30.068-24.757c5.049-4.157,11.654-7.563,14.678-7.568l128.093-.216c3.024-.005,9.239,3.412,13.811,7.594l27.229,24.903c4.572,4.182,4.198,7.603-.832,7.603Z"/><path class="cls-19" d="M318.266,314.076H105.183c-5.03,0-5.014-3.401.035-7.559l30.068-24.757c5.049-4.157,11.654-7.563,14.678-7.568l128.093-.216c3.024-.005,9.239,3.412,13.811,7.594l27.229,24.903c4.572,4.182,4.198,7.603-.832,7.603Z"/><path class="cls-6" d="M318.266,313.983H105.183c-5.03,0-5.014-3.401.035-7.559l30.068-24.757c5.049-4.157,11.654-7.563,14.678-7.568l128.093-.216c3.024-.005,9.239,3.412,13.811,7.594l27.229,24.903c4.572,4.182,4.198,7.603-.832,7.603Z"/><path class="cls-19" d="M318.266,313.983H105.183c-5.03,0-5.014-3.401.035-7.559l30.068-24.757c5.049-4.157,11.654-7.563,14.678-7.568l128.093-.216c3.024-.005,9.239,3.412,13.811,7.594l27.229,24.903c4.572,4.182,4.198,7.603-.832,7.603Z"/><path class="cls-6" d="M318.266,313.89H105.183c-5.03,0-5.014-3.401.035-7.559l30.068-24.757c5.049-4.157,11.654-7.563,14.678-7.568l128.093-.216c3.024-.005,9.239,3.412,13.811,7.594l27.229,24.903c4.572,4.182,4.198,7.603-.832,7.603Z"/><path class="cls-19" d="M318.266,313.89H105.183c-5.03,0-5.014-3.401.035-7.559l30.068-24.757c5.049-4.157,11.654-7.563,14.678-7.568l128.093-.216c3.024-.005,9.239,3.412,13.811,7.594l27.229,24.903c4.572,4.182,4.198,7.603-.832,7.603Z"/><path class="cls-6" d="M318.266,313.796H105.183c-5.03,0-5.014-3.401.035-7.559l30.068-24.757c5.049-4.157,11.654-7.563,14.678-7.568l128.093-.216c3.024-.005,9.239,3.412,13.811,7.594l27.229,24.903c4.572,4.182,4.198,7.603-.832,7.603Z"/><path class="cls-19" d="M318.266,313.796H105.183c-5.03,0-5.014-3.401.035-7.559l30.068-24.757c5.049-4.157,11.654-7.563,14.678-7.568l128.093-.216c3.024-.005,9.239,3.412,13.811,7.594l27.229,24.903c4.572,4.182,4.198,7.603-.832,7.603Z"/><path class="cls-6" d="M318.266,313.703H105.183c-5.03,0-5.014-3.401.035-7.559l30.068-24.757c5.049-4.157,11.654-7.563,14.678-7.568l128.093-.216c3.024-.005,9.239,3.412,13.811,7.594l27.229,24.903c4.572,4.182,4.198,7.603-.832,7.603Z"/><path class="cls-19" d="M318.266,313.703H105.183c-5.03,0-5.014-3.401.035-7.559l30.068-24.757c5.049-4.157,11.654-7.563,14.678-7.568l128.093-.216c3.024-.005,9.239,3.412,13.811,7.594l27.229,24.903c4.572,4.182,4.198,7.603-.832,7.603Z"/><path class="cls-6" d="M318.266,313.61H105.183c-5.03,0-5.014-3.401.035-7.559l30.068-24.757c5.049-4.157,11.654-7.563,14.678-7.568l128.093-.216c3.024-.005,9.239,3.412,13.811,7.594l27.229,24.903c4.572,4.182,4.198,7.603-.832,7.603Z"/><path class="cls-19" d="M318.266,313.61H105.183c-5.03,0-5.014-3.401.035-7.559l30.068-24.757c5.049-4.157,11.654-7.563,14.678-7.568l128.093-.216c3.024-.005,9.239,3.412,13.811,7.594l27.229,24.903c4.572,4.182,4.198,7.603-.832,7.603Z"/><path class="cls-6" d="M318.266,313.516H105.183c-5.03,0-5.014-3.401.035-7.559l30.068-24.757c5.049-4.157,11.654-7.563,14.678-7.568l128.093-.216c3.024-.005,9.239,3.412,13.811,7.594l27.229,24.903c4.572,4.182,4.198,7.603-.832,7.603Z"/><path class="cls-19" d="M318.266,313.516H105.183c-5.03,0-5.014-3.401.035-7.559l30.068-24.757c5.049-4.157,11.654-7.563,14.678-7.568l128.093-.216c3.024-.005,9.239,3.412,13.811,7.594l27.229,24.903c4.572,4.182,4.198,7.603-.832,7.603Z"/><path class="cls-6" d="M318.266,313.423H105.183c-5.03,0-5.014-3.401.035-7.559l30.068-24.757c5.049-4.157,11.654-7.563,14.678-7.568l128.093-.216c3.024-.005,9.239,3.412,13.811,7.594l27.229,24.903c4.572,4.182,4.198,7.603-.832,7.603Z"/><path class="cls-19" d="M318.266,313.423H105.183c-5.03,0-5.014-3.401.035-7.559l30.068-24.757c5.049-4.157,11.654-7.563,14.678-7.568l128.093-.216c3.024-.005,9.239,3.412,13.811,7.594l27.229,24.903c4.572,4.182,4.198,7.603-.832,7.603Z"/><path class="cls-6" d="M318.266,313.33H105.183c-5.03,0-5.014-3.401.035-7.559l30.068-24.757c5.049-4.157,11.654-7.563,14.678-7.568l128.093-.216c3.024-.005,9.239,3.412,13.811,7.594l27.229,24.903c4.572,4.182,4.198,7.603-.832,7.603Z"/><path class="cls-19" d="M318.266,313.33H105.183c-5.03,0-5.014-3.401.035-7.559l30.068-24.757c5.049-4.157,11.654-7.563,14.678-7.568l128.093-.216c3.024-.005,9.239,3.412,13.811,7.594l27.229,24.903c4.572,4.182,4.198,7.603-.832,7.603Z"/><path class="cls-6" d="M318.266,313.237H105.183c-5.03,0-5.014-3.401.035-7.559l30.068-24.757c5.049-4.157,11.654-7.563,14.678-7.568l128.093-.216c3.024-.005,9.239,3.412,13.811,7.594l27.229,24.903c4.572,4.182,4.198,7.603-.832,7.603Z"/><path class="cls-19" d="M318.266,313.237H105.183c-5.03,0-5.014-3.401.035-7.559l30.068-24.757c5.049-4.157,11.654-7.563,14.678-7.568l128.093-.216c3.024-.005,9.239,3.412,13.811,7.594l27.229,24.903c4.572,4.182,4.198,7.603-.832,7.603Z"/><path class="cls-6" d="M318.266,313.143H105.183c-5.03,0-5.014-3.401.035-7.559l30.068-24.757c5.049-4.157,11.654-7.563,14.678-7.568l128.093-.216c3.024-.005,9.239,3.412,13.811,7.594l27.229,24.903c4.572,4.182,4.198,7.603-.832,7.603Z"/><path class="cls-19" d="M318.266,313.143H105.183c-5.03,0-5.014-3.401.035-7.559l30.068-24.757c5.049-4.157,11.654-7.563,14.678-7.568l128.093-.216c3.024-.005,9.239,3.412,13.811,7.594l27.229,24.903c4.572,4.182,4.198,7.603-.832,7.603Z"/><path class="cls-6" d="M318.266,313.05H105.183c-5.03,0-5.014-3.401.035-7.559l30.068-24.757c5.049-4.157,11.654-7.563,14.678-7.568l128.093-.216c3.024-.005,9.239,3.412,13.811,7.594l27.229,24.903c4.572,4.182,4.198,7.603-.832,7.603Z"/><path class="cls-19" d="M318.266,313.05H105.183c-5.03,0-5.014-3.401.035-7.559l30.068-24.757c5.049-4.157,11.654-7.563,14.678-7.568l128.093-.216c3.024-.005,9.239,3.412,13.811,7.594l27.229,24.903c4.572,4.182,4.198,7.603-.832,7.603Z"/><path class="cls-7" d="M287.871,305.162c-49.156.096-98.312.192-147.469.287,7.982-9.008,15.965-18.016,23.947-27.025h102.998c6.841,8.912,13.682,17.825,20.523,26.737Z"/><path class="cls-10" d="M328.42,117.668l-52.082,161.621"/><line class="cls-18" x1="354.319" y1="163.278" x2="288.904" y2="295.555"/><line class="cls-18" x1="299.74" y1="140.184" x2="270.928" y2="262.505"/><path class="cls-14" d="M106.002,106.877c15.446,57.923,30.892,115.845,46.339,173.768"/><line class="cls-12" x1="88.711" y1="166.255" x2="142.087" y2="296.683"/><line class="cls-12" x1="133.246" y1="143.483" x2="156.755" y2="264.095"/><circle class="cls-3" cx="80.583" cy="216.345" r="2.986"/><circle class="cls-2" cx="351.222" cy="229.416" r="1.493"/><circle class="cls-3" cx="331.285" cy="263.064" r="2.986"/><circle class="cls-2" cx="74.008" cy="255.69" r="1.493"/><circle class="cls-2" cx="102.408" cy="152.038" r="1.493"/><circle class="cls-3" cx="108.734" cy="260.593" r="2.986"/><circle class="cls-2" cx="321.612" cy="195.405" r="1.493"/><circle class="cls-2" cx="138.323" cy="124.002" r="1.493"/><circle class="cls-2" cx="310.319" cy="125.495" r="1.493"/><circle class="cls-4" cx="277.802" cy="97.526" r="3.193"/><rect class="cls-9" x="181.007" y="234.184" width="40.916" height="40.916" transform="translate(-55.751 56.473) rotate(-14.038)"/><path class="cls-16" d="M240.091,274.635c-14.261,3.582-28.521,7.164-42.782,10.746-3.576-1.977-7.152-3.953-10.728-5.93l39.694-9.925c4.605,1.703,9.211,3.406,13.816,5.109Z"/><path class="cls-11" d="M240.091,274.635c-4.605-1.703-9.211-3.406-13.816-5.109l-9.925-39.694,14.305,7.569c3.145,12.411,6.291,24.823,9.436,37.234Z"/><rect class="cls-13" x="167.029" y="95.821" width="43.821" height="43.821" transform="translate(-24.985 179.338) rotate(-47.993)"/><path class="cls-15" d="M235.214,112.387c-10.526,11.713-21.052,23.426-31.578,35.139-4.359.383-8.719.766-13.078,1.15l29.326-32.562c5.11-1.242,10.22-2.484,15.33-3.726Z"/><path class="cls-8" d="M235.214,112.387c-5.11,1.242-10.22,2.484-15.33,3.726l-32.562-29.326c5.745-.611,11.49-1.222,17.235-1.833,10.219,9.144,20.438,18.288,30.656,27.433Z"/><rect class="cls-9" x="186.102" y="144.308" width="64.227" height="64.227" transform="translate(64.628 -58.426) rotate(17.861)"/><path class="cls-16" d="M253.106,235.105c-21.976-7.055-43.951-14.11-65.927-21.166-3.126-5.601-6.252-11.201-9.378-16.802l61.131,19.699c4.725,6.089,9.45,12.179,14.175,18.268Z"/><path class="cls-11" d="M253.106,235.105c-4.725-6.089-9.45-12.179-14.175-18.268l19.699-61.131c4.262,7.317,8.523,14.635,12.785,21.952-6.103,19.149-12.206,38.298-18.309,57.447Z"/><path class="cls-5" d="M211.243,3.788c28.008,0,55.176,5.485,80.75,16.301,24.703,10.449,46.89,25.407,65.943,44.461,19.054,19.054,34.012,41.24,44.461,65.943,10.817,25.574,16.301,52.742,16.301,80.75s-5.485,55.176-16.301,80.75c-10.449,24.703-25.407,46.89-44.461,65.943-19.054,19.054-41.24,34.012-65.943,44.461-25.574,10.817-52.742,16.301-80.75,16.301s-55.176-5.484-80.75-16.301c-24.703-10.449-46.89-25.407-65.943-44.461-19.054-19.054-34.012-41.24-44.461-65.943-10.817-25.574-16.301-52.742-16.301-80.75s5.485-55.176,16.301-80.75c10.449-24.703,25.407-46.89,44.461-65.943,19.054-19.054,41.24-34.012,65.943-44.461,25.574-10.817,52.742-16.301,80.75-16.301M211.243,0C94.577,0,0,94.577,0,211.243s94.577,211.243,211.243,211.243,211.243-94.577,211.243-211.243S327.91,0,211.243,0h0Z"/><path class="cls-1" d="M211.243,44.778c44.465,0,86.268,17.315,117.709,48.757,31.441,31.441,48.757,73.244,48.757,117.709s-17.315,86.268-48.757,117.709c-31.441,31.441-73.244,48.757-117.709,48.757s-86.268-17.315-117.709-48.757c-31.441-31.441-48.757-73.244-48.757-117.709s17.315-86.268,48.757-117.709c31.441-31.441,73.244-48.757,117.709-48.757M211.243,41.778c-93.593,0-169.465,75.872-169.465,169.465s75.872,169.465,169.465,169.465,169.465-75.872,169.465-169.465S304.836,41.778,211.243,41.778h0Z"/></g></svg>