<?xml version="1.0" encoding="UTF-8"?><svg id="_레이어_2" xmlns="http://www.w3.org/2000/svg" viewBox="0 0 422.487 422.487"><defs><style>.cls-1{stroke-dasharray:0 0 11.099 16.648;}.cls-1,.cls-2,.cls-3,.cls-4,.cls-5,.cls-6,.cls-7{stroke-miterlimit:10;}.cls-1,.cls-2,.cls-3,.cls-5,.cls-6,.cls-7{stroke:#476c94;}.cls-1,.cls-8,.cls-3,.cls-9,.cls-5,.cls-10,.cls-11,.cls-7,.cls-12{fill:none;}.cls-1,.cls-5{stroke-width:10px;}.cls-2{stroke-width:3.098px;}.cls-2,.cls-4{fill:#376387;}.cls-8{stroke-width:7.523px;}.cls-8,.cls-4,.cls-9,.cls-11{stroke:#376387;}.cls-8,.cls-9,.cls-10,.cls-11,.cls-12{stroke-linecap:round;stroke-linejoin:round;}.cls-3,.cls-10,.cls-6{stroke-width:3px;}.cls-13{fill:#bfeefe;}.cls-13,.cls-14,.cls-15,.cls-16,.cls-17{stroke-width:0px;}.cls-4,.cls-11{stroke-width:4.772px;}.cls-9{stroke-width:5.785px;}.cls-14{fill:#67c6f5;}.cls-15,.cls-6{fill:#3daff5;}.cls-10,.cls-12{stroke:#67c8f5;}.cls-16{fill:#67c8f5;}.cls-17{fill:#fff;}.cls-7{stroke-width:8.694px;}.cls-12{stroke-width:5px;}</style></defs><g id="_틀"><path class="cls-17" d="M375.6,252.575c3.316-13.23,5.086-27.074,5.086-41.332,0-93.593-75.872-169.465-169.465-169.465S41.755,117.65,41.755,211.243c0,14.313,1.783,28.208,5.123,41.484,109.823-.069,218.946-.796,328.721-.152Z"/><path class="cls-16" d="M45.384,244.174c15.83,79.126,85.737,136.483,165.837,136.535,81.353.053,152.092-59.021,166.654-139.686-55.303,2.437-112.414,3.998-171.235,4.494-55.281.466-109.062-.033-161.256-1.343Z"/><path class="cls-13" d="M108.524,146.876h-17.085v-46.868h-7.368c-19.95,28.094-35.192,59.532-41.043,93.039-.413,5.557-.631,11.19-.631,16.894,0,14.237,1.317,28.067,3.802,41.265,11.815.046,23.686.047,35.612,0,9.074-.036,18.117-.098,27.127-.188-.138-34.714-.276-69.428-.414-104.142Z"/><path class="cls-13" d="M338.939,100.636h-2.322v67.3h-16.634v82.677l54.798-.051c.556-5.193,1.001-10.358,2.64-15.821,9.742-48.71-7.096-97.415-38.482-134.105Z"/><line class="cls-5" x1="210.725" y1="298.226" x2="210.725" y2="303.226"/><line class="cls-1" x1="210.725" y1="319.874" x2="210.725" y2="367.043"/><line class="cls-5" x1="210.725" y1="375.367" x2="210.725" y2="380.367"/><circle class="cls-4" cx="211.394" cy="149.988" r="5.599"/><path class="cls-11" d="M197.878,129.393c3.394-3.579,8.194-5.811,13.516-5.811,5.143,0,9.799,2.084,13.169,5.455"/><path class="cls-9" d="M188.971,115.117c5.704-6.015,13.771-9.766,22.715-9.766,8.643,0,16.468,3.503,22.132,9.167"/><path class="cls-8" d="M178.422,96.885c8.343-6.953,20.143-11.289,33.225-11.289,12.642,0,24.088,4.05,32.372,10.597"/><rect class="cls-6" x="120.705" y="170.916" width="180.041" height="89.074" rx="35.077" ry="35.077"/><rect class="cls-17" x="132.712" y="183.621" width="156.027" height="86.57" rx="26.664" ry="26.664"/><path class="cls-2" d="M167.456,296.552c-.109,2.041-1.001,16.939-6.102,23.87-.75,1.02-1.962,2.665-4.152,3.696-.836.393-1.683.635-8.423.687-4.238.032-5.318-.053-6.683-.641,0,0-1.877-.809-3.571-2.609-2.962-3.149-5.373-12.534-5.814-25.002h34.745Z"/><path class="cls-2" d="M253.994,296.552c.109,2.041,1.001,16.939,6.102,23.87.75,1.02,1.962,2.665,4.152,3.696.836.393,1.683.635,8.423.687,4.238.032,5.318-.053,6.683-.641,0,0,1.877-.809,3.571-2.609,2.962-3.149,5.373-12.534,5.814-25.002-11.582,0-23.163,0-34.745,0Z"/><circle class="cls-7" cx="250.783" cy="234.413" r="20.584"/><path class="cls-17" d="M306.728,298.226H115.315c-11.531,0-19.483-8.57-17.671-19.044l4.959-28.661c1.812-10.474,11.874-19.065,22.359-19.091l174.044-.428c10.485-.026,20.299,8.59,21.809,19.146l4.132,28.885c1.51,10.556-6.689,19.193-18.22,19.193Z"/><path class="cls-3" d="M306.728,298.226H115.315c-11.531,0-19.483-8.57-17.671-19.044l4.959-28.661c1.812-10.474,11.874-19.065,22.359-19.091l174.044-.428c10.485-.026,20.299,8.59,21.809,19.146l4.132,28.885c1.51,10.556-6.689,19.193-18.22,19.193Z"/><rect class="cls-15" x="105.396" y="250.612" width="56.93" height="25.091" rx="9.687" ry="9.687"/><rect class="cls-15" x="261.547" y="250.918" width="56.93" height="25.091" rx="9.435" ry="9.435"/><circle class="cls-15" cx="136.531" cy="158.257" r="2.67"/><circle class="cls-15" cx="128.779" cy="133.262" r="1.335"/><circle class="cls-15" cx="288.677" cy="149.988" r="1.335"/><circle class="cls-15" cx="295.451" cy="131.927" r="1.335"/><circle class="cls-15" cx="286.007" cy="105.351" r="2.67"/><circle class="cls-15" cx="136.531" cy="96.885" r="1.335"/><circle class="cls-15" cx="130.114" cy="112.904" r="2.67"/><circle class="cls-15" cx="310.348" cy="139.984" r="2.67"/><circle class="cls-15" cx="313.018" cy="115.574" r="2.67"/><line class="cls-12" x1="143.527" y1="115.117" x2="170.961" y2="155.587"/><line class="cls-10" x1="140.417" y1="138.48" x2="160.146" y2="158.715"/><line class="cls-12" x1="277.813" y1="114.362" x2="250.379" y2="154.832"/><line class="cls-10" x1="280.922" y1="137.726" x2="261.194" y2="157.961"/><path class="cls-17" d="M117.972,254.879c-1.785.571-3.327,1.464-4.714,2.726-.28.255-.54.532-.777.827-.432.538-.885,1.091-1.246,1.685-.461.758-.802,1.603-1.101,2.434-.188.598-.214,1.196-.08,1.794.027.599.205,1.157.534,1.673.283.524.669.945,1.159,1.263.435.398.945.666,1.53.805l1.196.161c.812-.003,1.569-.207,2.271-.614l.911-.704c.558-.561.943-1.223,1.157-1.986.05-.139.104-.277.161-.414l-.454,1.075c.249-.579.567-1.121.95-1.621l-.704.911c.387-.494.83-.935,1.326-1.319l-.911.704c.5-.379,1.042-.694,1.619-.94l-1.075.454c.21-.088.423-.166.639-.236,1.107-.354,2.094-1.051,2.689-2.068.329-.517.507-1.074.534-1.673.134-.598.107-1.196-.08-1.794l-.454-1.075c-.4-.676-.938-1.214-1.614-1.614-1.047-.553-2.307-.825-3.468-.454h0Z"/><path class="cls-17" d="M275.015,254.879c-1.785.571-3.327,1.464-4.714,2.726-.28.255-.54.532-.777.827-.432.538-.885,1.091-1.246,1.685-.461.758-.802,1.603-1.101,2.434-.188.598-.214,1.196-.08,1.794.027.599.205,1.157.534,1.673.283.524.669.945,1.159,1.263.435.398.945.666,1.53.805l1.196.161c.812-.003,1.569-.207,2.271-.614l.911-.704c.558-.561.943-1.223,1.157-1.986.05-.139.104-.277.161-.414l-.454,1.075c.249-.579.567-1.121.95-1.621l-.704.911c.387-.494.83-.935,1.326-1.319l-.911.704c.5-.379,1.042-.694,1.619-.94l-1.075.454c.21-.088.423-.166.639-.236,1.107-.354,2.094-1.051,2.689-2.068.329-.517.507-1.074.534-1.673.134-.598.107-1.196-.08-1.794l-.454-1.075c-.4-.676-.938-1.214-1.614-1.614-1.047-.553-2.307-.825-3.468-.454h0Z"/><path class="cls-16" d="M211.243,3.788c28.008,0,55.176,5.485,80.75,16.301,24.703,10.449,46.89,25.407,65.943,44.461,19.054,19.054,34.012,41.24,44.461,65.943,10.817,25.574,16.301,52.742,16.301,80.75s-5.484,55.176-16.301,80.75c-10.449,24.703-25.407,46.89-44.461,65.943-19.054,19.054-41.24,34.012-65.943,44.461-25.574,10.817-52.742,16.301-80.75,16.301s-55.176-5.485-80.75-16.301c-24.703-10.449-46.89-25.407-65.943-44.461-19.054-19.054-34.012-41.24-44.461-65.943-10.817-25.574-16.301-52.742-16.301-80.75s5.485-55.176,16.301-80.75c10.449-24.703,25.407-46.89,44.461-65.943,19.054-19.054,41.24-34.012,65.943-44.461,25.574-10.817,52.742-16.301,80.75-16.301M211.243,0C94.577,0,0,94.577,0,211.243s94.577,211.243,211.243,211.243,211.243-94.577,211.243-211.243S327.91,0,211.243,0h0Z"/><path class="cls-14" d="M211.243,44.778c44.464,0,86.268,17.315,117.709,48.757,31.441,31.441,48.757,73.244,48.757,117.709s-17.315,86.268-48.757,117.709c-31.441,31.441-73.244,48.757-117.709,48.757s-86.268-17.315-117.709-48.757c-31.441-31.441-48.757-73.244-48.757-117.709s17.315-86.268,48.757-117.709c31.441-31.441,73.244-48.757,117.709-48.757M211.243,41.778c-93.593,0-169.465,75.872-169.465,169.465s75.872,169.465,169.465,169.465,169.465-75.872,169.465-169.465S304.836,41.778,211.243,41.778h0Z"/></g></svg>