<?xml version="1.0" encoding="UTF-8"?><svg id="_레이어_2" xmlns="http://www.w3.org/2000/svg" viewBox="0 0 422.487 422.487"><defs><style>.cls-1{stroke-width:4.79px;}.cls-1,.cls-2,.cls-3,.cls-4,.cls-5,.cls-6,.cls-7,.cls-8,.cls-9,.cls-10,.cls-11{stroke-linecap:round;stroke-linejoin:round;}.cls-1,.cls-2,.cls-3,.cls-4,.cls-5,.cls-6,.cls-7,.cls-8,.cls-10,.cls-11{fill:none;}.cls-1,.cls-3,.cls-5,.cls-8,.cls-10,.cls-11{stroke:#376599;}.cls-12{fill:#376599;}.cls-12,.cls-13,.cls-14,.cls-15,.cls-16,.cls-17,.cls-18,.cls-19,.cls-20{stroke-width:0px;}.cls-2,.cls-6{stroke-width:4px;}.cls-2,.cls-9{stroke:#476c94;}.cls-13{fill:#bfeefe;}.cls-3{stroke-width:4.219px;}.cls-4{stroke-width:2px;}.cls-4,.cls-6,.cls-7{stroke:#3daff5;}.cls-5{stroke-width:3px;}.cls-14,.cls-9{fill:#2365b0;}.cls-15{fill:#376387;}.cls-16{fill:#3daff5;}.cls-8{stroke-width:2.315px;}.cls-9{stroke-width:3.536px;}.cls-10{stroke-width:5px;}.cls-17{fill:#ff852e;}.cls-11{stroke-width:2.883px;}.cls-18{fill:#67c8f5;}.cls-19{fill:#fff;}.cls-20{fill:#476c94;}</style></defs><g id="_틀"><circle class="cls-19" cx="210.725" cy="211.243" r="169.465"/><path class="cls-13" d="M369.438,152.523c-3.886-10.455-8.403-18.163-11.882-24.099-5.564-9.493-10.537-16.051-12.295-18.325-2.97-3.843-6.681-8.644-12.389-14.266-3.918-3.859-6.242-5.609-12.952-12.201-5.631-5.532-4.527-4.823-6.324-6.373-8.657-7.465-15.66-7.922-25.752-14.157-7.311-4.516-8.932-6.024-11.607-7.646,0,0-1.666-.985-3.537-1.905-4.169-2.048-8.439-3.292-12.657-4.446-3.927-1.074-8.474-2.252-13.563-3.45,0,0-11.825-2.71-23.191-3.158-17.413-.687-34.827,2.356-52.24,5.807-4.806,4.613-9.227,13.231-16.872,28.167-8.315,16.245-9.866,23.573-9.816,30.532.032,4.407.188,11.812,5.267,17.564,3.358,3.803,7.729,5.592,9.756,6.422,5.848,2.394,7.36.92,13.9,3.139,4.374,1.484,8.67,2.942,11.829,6.982,3.604,4.61,3.824,10.149,3.99,14.299.173,4.339-.655,5.314-.959,9.891-.138,2.086-.695,10.466,2.16,17.184,3.958,9.314,13.584,13.338,20.742,16.33,6.846,2.862,9.344,2.529,21.863,5.068,0,0,41.756,8.603,48.771,7.321,4.22-.772,7.287-2.252,7.288-2.252,6.726-3.247,6.688-6.935,11.212-8.447,4.683-1.566,5.93,1.984,15.874,2.762,5.025.393,9.355.732,13.154-1.88,2.73-1.877,4.195-4.598,6.514-8.905,2.329-4.325,2.256-5.882,4.659-8.842,1.088-1.34,2.856-3.519,5.876-4.998,4.834-2.367,10.962-2.006,15.2.584,2.184,1.335,2.223,2.257,5.1,3.85,2.08,1.152,5.758,3.188,7.621,2.224,3.48-1.802.731-18.063-4.737-32.777Z"/><path class="cls-14" d="M315.425,107.113c-.87-5.6-12.44-8.69-27.83-8.11,1.03.9,1.96,1.93,2.74,3.06,10.72-.23,18.33,1.47,18.83,4.7.5,3.24-6.23,7.16-16.52,10.19-4.44,1.3-9.54,2.44-15,3.29-5.47.84-10.67,1.3-15.29,1.4-10.72.23-18.33-1.47-18.83-4.71s6.23-7.15,16.52-10.18c.41-1.32.98-2.58,1.68-3.74-14.84,4.11-24.93,10.55-24.06,16.15.93,5.98,14.04,9.08,30.97,7.93,3.18-.21,6.5-.57,9.9-1.1s6.67-1.18,9.77-1.94c16.49-4.03,28.05-10.97,27.12-16.94Z"/><path class="cls-17" d="M278.535,125.993c3.4-.53,6.67-1.18,9.77-1.94-3.09,3.02-7.3,4.88-11.96,4.88-2.78,0-5.4-.66-7.71-1.84,3.18-.21,6.5-.57,9.9-1.1Z"/><path class="cls-17" d="M293.425,111.853c0,1.77-.27,3.49-.78,5.1-4.44,1.3-9.54,2.44-15,3.29-5.47.84-10.67,1.3-15.29,1.4-1.95-2.77-3.09-6.15-3.09-9.79,0-1.78.27-3.49.78-5.1.41-1.32.98-2.58,1.68-3.74,3-4.94,8.42-8.24,14.62-8.24,4.31,0,8.24,1.59,11.25,4.23,1.03.9,1.96,1.93,2.74,3.06,1.95,2.77,3.09,6.15,3.09,9.79Z"/><path class="cls-14" d="M221.665,87.172c0,1.767-2.845,3.274-6.837,3.863-.448,6.434-1.983,11.177-3.802,11.177s-3.363-4.743-3.811-11.177c-4.001-.589-6.837-2.096-6.837-3.863s2.837-3.274,6.837-3.871c.448-6.434,1.983-11.169,3.811-11.169s3.354,4.735,3.802,11.169c3.992.597,6.837,2.104,6.837,3.871Z"/><path class="cls-14" d="M302.721,168.05c0,1.141-1.837,2.114-4.415,2.494-.289,4.154-1.28,7.216-2.455,7.216s-2.171-3.062-2.461-7.216c-2.583-.38-4.415-1.353-4.415-2.494s1.832-2.114,4.415-2.499c.289-4.154,1.28-7.211,2.461-7.211s2.166,3.057,2.455,7.211c2.577.385,4.415,1.358,4.415,2.499Z"/><circle class="cls-14" cx="229.639" cy="150.95" r="7.974"/><circle class="cls-14" cx="327.826" cy="138.989" r="3.987"/><circle class="cls-19" cx="195.016" cy="114.208" r="1.993"/><circle class="cls-19" cx="247.949" cy="74.009" r="1.993"/><circle class="cls-19" cx="327.826" cy="165.683" r="1.993"/><circle class="cls-19" cx="183.753" cy="76.003" r="1.993"/><line class="cls-6" x1="100.205" y1="173.769" x2="100.205" y2="208.689"/><line class="cls-6" x1="113.472" y1="189.649" x2="86.939" y2="189.649"/><line class="cls-4" x1="109.34" y1="180.268" x2="90.579" y2="199.03"/><line class="cls-4" x1="109.586" y1="198.784" x2="90.825" y2="180.022"/><line class="cls-4" x1="85.144" y1="211.003" x2="85.144" y2="228.464"/><line class="cls-4" x1="91.777" y1="218.943" x2="78.511" y2="218.943"/><line class="cls-7" x1="89.711" y1="214.253" x2="80.331" y2="223.634"/><line class="cls-7" x1="89.834" y1="223.511" x2="80.454" y2="214.13"/><path class="cls-19" d="M241.729,296.085c-32.462,0-58.871-26.409-58.871-58.871s26.409-58.87,58.871-58.87,58.87,26.409,58.87,58.87-26.409,58.871-58.87,58.871Z"/><path class="cls-20" d="M241.729,179.845c31.634,0,57.37,25.736,57.37,57.37s-25.736,57.37-57.37,57.37-57.37-25.736-57.37-57.37,25.736-57.37,57.37-57.37M241.729,176.845c-33.342,0-60.37,27.029-60.37,60.37s27.029,60.37,60.37,60.37,60.37-27.029,60.37-60.37-27.029-60.37-60.37-60.37h0Z"/><path class="cls-20" d="M236.411,270.925c-.236.72-1.475,4.499-5.062,5.789-3.52,1.265-7.67-.453-9.411-2.958-1.031-1.483-.588-2.337-2.139-4.604-1.266-1.852-1.897-1.772-3.028-3.458-.666-.993-2.156-3.214-1.822-5.685.387-2.86,3.062-4.85,5.081-5.67,5.506-2.237,11.318,2.627,11.866,3.1,3.445,2.968,6.168,8.442,4.514,13.487Z"/><path class="cls-2" d="M113.811,232.449c-.899.563-2.653,1.833-3.731,4.025-.76,1.545-.865,2.9-.886,3.442-.012.302-.043,1.576.493,3.153.451,1.327,1.08,2.21,1.686,3.061.536.753,1.303,1.814,2.646,2.921.771.636,2,1.508,3.735,2.226"/><path class="cls-2" d="M109.251,239.239c-1.322,1.161-3.152,3.142-4.071,5.983-.391,1.208-.917,2.783-.388,4.687.523,1.882,1.751,3.085,2.908,4.218,1.295,1.269,2.652,2.625,4.944,3.398,3.194,1.077,6.158.349,7.348-.014"/><path class="cls-2" d="M105.877,252.112c-.579.985-1.332,2.639-1.294,4.725.019,1.043-.007,2.532,1.092,3.857,1.109,1.337,2.701,1.914,4.2,2.457,1.442.522,3.348,1.225,5.953,1.169,3.294-.071,5.72-1.305,6.843-1.975"/><path class="cls-2" d="M136.795,248.958c-1.215-1.233-3.38-3.04-6.641-4.081-2.142-.684-5.005-1.598-7.886-.371-2.923,1.245-3.946,3.877-4.151,4.452-.982,2.758.141,5.188.83,6.678,2.086,4.513,6.641,7.791,6.641,7.791h0c.415,2.102.83,4.205,1.245,6.307"/><path class="cls-2" d="M238.628,375.162c-.429-1.93-1.165-4.349-2.477-6.957-1.962-3.899-4.411-6.629-6.221-8.337-8.645,1.438-20.626,2.168-34.163-.938-11.411-2.619-19.242-6.89-21.023-7.884-10.021-5.589-16.161-12.061-21.023-17.269-7.675-8.221-12.14-15.588-15.392-21.023-3.757-6.279-8.17-14.731-11.986-25.253-1.994-.674-5.113-2.064-7.884-4.974-2.948-3.096-4.024-6.36-4.778-8.646-1.189-3.605-1.416-6.776-1.406-8.925"/><path class="cls-2" d="M286.291,299.683c9.513-4.286,23.74-.655,32.026,2.184,8.774,3.006,16.562,7.69,23.249,13.346"/><path class="cls-2" d="M127.676,243.047c-2.676-4.328-6.755-7.135-11.067-10.09-4.5-3.093-11.045-8.311-7.352-13.993,3.184-4.911,10.846-2.906,14.826-.02,3.803,2.747,7.098,6.117,10.658,9.111,7.543,6.344,8.07,6.839,10.68,9.605,6.448,6.834,7.695,14.055,10.458,23.661,2.692,9.357,6.544,22.75,12.952,33.224,2.375,3.882,15.756,25.755,37.447,27.03,8.681.51,23.223-2.012,28.531-12.576,2.129-4.238,2.171-8.57,1.826-11.629"/><path class="cls-1" d="M155.701,74.009c-6.447,10.302-11.671,23.054-11.402,35.385.348,15.966,11.85,21.58,25.913,24.174,9.118,1.682,15.721,5.027,18.051,14.743,1.501,6.257,1.235,13.587-.644,19.739"/><path class="cls-3" d="M367.559,183.077c-.858-.864-7.788-7.632-16.199-5.971-5.687,1.123-9.297,5.555-10.095,6.535-3.125,3.837-2.869,6.68-6.922,12.517-1.873,2.697-2.748,4.087-4.301,5.23-4.578,3.37-10.499,2.483-13.214,1.88"/><path class="cls-11" d="M121.81,126.867c1.762,12.409,7.943,29.558,23.27,28.802,4.071-.201,7.954-1.824,11.975-2.473,3.773-.609,7.645-.149,11.013,1.329,4.358,1.912,7.642,5.438,9.503,9.75"/><path class="cls-8" d="M355.691,216.473c-.408-.863-3.756-7.683-10.313-8.87-4.434-.803-8.188,1.357-9.018,1.835-3.25,1.87-3.781,3.984-8.214,7.028-2.048,1.406-3.038,2.157-4.46,2.538-4.192,1.124-8.289-1.188-10.118-2.389"/><circle class="cls-5" cx="125.198" cy="103.62" r="1.408"/><circle class="cls-5" cx="172.209" cy="186.562" r="1.408"/><circle class="cls-5" cx="108.466" cy="130.543" r="1.408"/><circle class="cls-10" cx="360.01" cy="196.281" r="1.408"/><circle class="cls-10" cx="144.359" cy="140.251" r="1.408"/><circle class="cls-10" cx="145.767" cy="175.437" r="1.408"/><circle class="cls-5" cx="333.221" cy="230.465" r="1.408"/><circle class="cls-5" cx="302.29" cy="203.842" r="1.408"/><path class="cls-15" d="M183.231,247.306c-3.415,0-8.179-.876-11.46-5.05-2.972-3.808-3.636-9.018-3.702-9.6-.153-1.48-.156-3.041-.008-4.626l.925-9.648c.545-3.084,2.092-9.011,6.359-14.479,4.561-5.901,9.762-8.055,12.454-8.814,10.364-3.099,20.844-4.935,31.208-5.46,2.088-.106,4.204-.16,6.287-.16,10.49,0,20.993,1.349,31.26,4.009,2.708.848,7.987,3.241,12.149,9.541,2.137,3.207,3.657,6.882,4.513,10.923.318,1.487.483,2.716.566,3.506l.07,9.639c.01,1.337-.124,4.856-1.577,8.63-.832,2.139-1.969,4.046-3.379,5.668-3.883,4.423-8.646,5.352-11.954,5.352-1.922,0-3.242-.318-3.385-.354-10.536-2.634-21.313-3.97-32.075-3.97-1.034,0-2.079.012-3.137.038-10.591.252-21.296,1.792-31.859,4.577-.258.05-1.52.278-3.254.278Z"/><path class="cls-12" d="M225.22,190.97c10.371,0,20.754,1.328,30.903,3.949,2.616.827,7.519,3.084,11.399,8.962,2.027,3.045,3.468,6.54,4.279,10.391.292,1.37.447,2.513.527,3.268l.055,9.562c.007,1.25-.122,4.538-1.484,8.068-.772,1.98-1.821,3.74-3.115,5.227-3.512,4.001-7.821,4.841-10.815,4.841-1.77,0-2.97-.297-3.027-.311-10.635-2.663-21.517-4.013-32.383-4.013-1.05,0-2.116.013-3.168.038-10.662.255-21.44,1.803-32.073,4.602-.349.066-1.464.253-2.955.253-3.104,0-7.426-.789-10.381-4.547-2.753-3.526-3.375-8.381-3.434-8.903-.147-1.395-.152-2.855-.015-4.336l.905-9.588c.523-2.946,1.991-8.527,5.995-13.662,4.265-5.521,9.111-7.528,11.659-8.245,10.248-3.061,20.63-4.877,30.898-5.397,2.068-.105,4.163-.158,6.229-.158h.001M225.369,187.97c-2.064,0-4.181.051-6.344.161-12.158.618-22.824,2.924-31.473,5.513-1.951.55-8.003,2.552-13.29,9.394-4.851,6.207-6.291,12.823-6.727,15.297l-.945,9.713c-.162,1.694-.159,3.348.004,4.931.059.538.71,6.103,3.962,10.274,3.666,4.662,8.996,5.555,12.543,5.555,1.929,0,3.329-.264,3.652-.33,8.581-2.258,19.294-4.234,31.546-4.526,1.047-.025,2.083-.037,3.106-.037,12.563,0,23.321,1.819,31.758,3.925.272.068,1.704.399,3.754.399,3.503,0,8.796-.968,13.098-5.867,1.697-1.951,2.852-4.075,3.641-6.111,1.64-4.278,1.674-8.173,1.665-9.185l-.084-9.713c-.093-.897-.27-2.191-.605-3.744-.674-3.158-2.02-7.37-4.75-11.46-4.774-7.228-10.871-9.481-12.964-10.136-8.408-2.181-19.09-4.051-31.548-4.051h0Z"/><path class="cls-16" d="M299.331,246.064c-1.724-.04-3.022-.843-4.066-1.489l-.441-.27c-5.603-3.37-11.708-5.981-18.141-7.759-2.655-.734-5.387-1.323-8.143-1.756,1.173-3.557,1.271-6.681,1.25-7.984l-.162-9.798-.01-.081c-.063-.505-.164-1.188-.321-2.001,3.734.142,6.632.407,10.47,1.407,5.443,1.432,9.207,3.392,11.697,4.689,4.174,2.181,7.143,3.731,10.095,6.811,1.782,1.851,3.998,4.151,4.75,7.669.383,1.766,1.093,5.044-1.066,7.679-.026.032-2.416,2.882-5.782,2.882h-.129Z"/><path class="cls-12" d="M271.077,216.509c2.776.158,5.205.467,8.305,1.275,5.284,1.389,8.958,3.304,11.387,4.569l.059.031c3.985,2.081,6.864,3.585,9.653,6.494,1.734,1.8,3.698,3.84,4.363,6.948.454,2.096.807,4.493-.754,6.398-.02.023-2.007,2.341-4.629,2.341h-.092c-1.318-.031-2.378-.687-3.313-1.265-.165-.102-.32-.198-.453-.277-5.725-3.443-11.956-6.109-18.52-7.923-2.168-.599-4.385-1.104-6.625-1.508.749-2.899.856-5.373.832-6.811l-.16-9.717-.003-.163-.02-.162c-.01-.077-.02-.154-.03-.232M267.41,213.364c.396,1.557.607,2.852.72,3.75l.16,9.717c.017,1.013.005,4.909-1.81,9.178,2.969.389,6.28,1.009,9.803,1.983,7.648,2.114,13.608,5.097,17.773,7.602,1.106.658,2.821,1.913,5.243,1.969.054.001.107.002.161.002,4.045,0,6.812-3.271,6.942-3.431,2.605-3.179,1.791-7.015,1.373-8.944-.833-3.897-3.239-6.426-5.134-8.394-3.14-3.275-6.3-4.918-10.484-7.103-2.696-1.405-6.527-3.368-12.013-4.811-4.797-1.251-8.248-1.388-12.734-1.518h0Z"/><path class="cls-12" d="M283.498,224.659c-.061.027-1.384.579-3.402.486-1.183-.055-2.043-.313-2.595-.452-2.079-.529-5.042-1.178-8.813-1.701-1.737-.241-3.364-.414-4.82-.54.806-.736.739-1.438.712-1.621l-.259-1.754c-.072-.164-.199-.401-.421-.689,2.191.107,3.878.196,6.241.511,2.704.362,4.609.787,5.951,1.091,2.082.472,3.655.827,5.248,1.475.961.39,2.182.891,2.661,1.608.24.355.708,1.062-.504,1.587Z"/><path class="cls-12" d="M285.96,233.42c-.062.028-1.385.599-3.403.507-1.183-.055-2.042-.319-2.594-.461-2.078-.541-5.041-1.204-8.811-1.737-1.737-.245-3.364-.421-4.819-.547.807-.76.742-1.483.715-1.671l-.256-1.808c-.071-.169-.198-.413-.42-.71,2.191.106,3.878.195,6.241.515,2.703.368,4.608.803,5.949,1.113,2.082.482,3.654.845,5.245,1.511.961.4,2.181.914,2.658,1.653.239.366.707,1.093-.507,1.636Z"/><path class="cls-18" d="M256.934,246.738c-.984,0-1.81-.083-2.401-.169,4.414-15.973,4.695-34.334,1.05-53.352.348.086.691.174,1.031.262,2.698.848,7.96,3.241,12.106,9.541,2.131,3.207,3.647,6.882,4.5,10.923.318,1.487.482,2.716.565,3.506l.069,9.639c.009,1.337-.125,4.856-1.577,8.63-.832,2.139-1.969,4.047-3.381,5.668-3.887,4.423-8.652,5.352-11.96,5.352h0Z"/><path class="cls-12" d="M257.418,195.364c2.733,1.096,6.802,3.473,10.122,8.516,2.021,3.045,3.458,6.54,4.266,10.391.291,1.37.445,2.513.526,3.268l.053,9.562c.007,1.25-.122,4.538-1.485,8.068-.772,1.98-1.822,3.74-3.117,5.227-3.515,4.001-7.826,4.841-10.821,4.841-.182,0-.358-.003-.527-.009,3.831-15.091,4.103-32.172.983-49.865M253.745,191.229c3.789,18.419,4.358,38.134-1.099,56.487.167.041.34.081.505.122.272.068,1.705.399,3.755.399,3.505,0,8.801-.967,13.107-5.867,1.697-1.951,2.853-4.075,3.643-6.111,1.64-4.278,1.674-8.173,1.665-9.185l-.084-9.713c-.093-.897-.269-2.191-.604-3.744-.672-3.158-2.015-7.37-4.738-11.46-4.757-7.228-10.833-9.481-12.918-10.136-1.04-.27-2.123-.534-3.232-.792h0Z"/><ellipse class="cls-9" cx="265.758" cy="219.303" rx=".704" ry="1.408" transform="translate(3.671 442.981) rotate(-80.008)"/><ellipse class="cls-9" cx="265.068" cy="226.055" rx=".704" ry="1.408" transform="translate(-3.549 447.882) rotate(-80.008)"/><path class="cls-19" d="M188.185,204.465c-2.09,1.38-3.847,3.183-5.133,5.337-1.31,2.196-2.015,4.617-2.257,7.149-.069.722.384,1.627.879,2.121.52.52,1.374.912,2.121.879.776-.035,1.581-.29,2.121-.879.567-.617.799-1.288.879-2.121.019-.202.042-.402.069-.603l-.107.798c.166-1.154.478-2.271.926-3.347l-.302.717c.249-.579.53-1.142.853-1.684.168-.281.345-.556.532-.824.083-.119.162-.266.265-.366l-.286.368c.062-.079.125-.157.189-.235.382-.464.794-.903,1.236-1.31.22-.203.466-.38.682-.586-.657.628-.279.213-.07.063.142-.102.287-.199.433-.295,1.308-.863,1.987-2.691,1.076-4.105-.841-1.305-2.704-2.001-4.105-1.076h0Z"/><path class="cls-19" d="M181.76,233.873c3.861,0,3.867-6,0-6s-3.867,6,0,6h0Z"/><path class="cls-18" d="M211.243,3.788c28.008,0,55.176,5.485,80.75,16.301,24.703,10.449,46.89,25.407,65.943,44.461,19.054,19.054,34.012,41.24,44.461,65.943,10.817,25.574,16.301,52.742,16.301,80.75s-5.484,55.176-16.301,80.75c-10.449,24.703-25.407,46.89-44.461,65.943-19.054,19.054-41.24,34.012-65.943,44.461-25.574,10.817-52.742,16.301-80.75,16.301s-55.176-5.484-80.75-16.301c-24.703-10.449-46.89-25.407-65.943-44.461-19.054-19.054-34.012-41.24-44.461-65.943-10.817-25.574-16.301-52.742-16.301-80.75s5.485-55.176,16.301-80.75c10.449-24.703,25.407-46.89,44.461-65.943,19.054-19.054,41.24-34.012,65.943-44.461,25.574-10.817,52.742-16.301,80.75-16.301M211.243,0C94.577,0,0,94.577,0,211.243s94.577,211.243,211.243,211.243,211.243-94.577,211.243-211.243S327.91,0,211.243,0h0Z"/><path class="cls-18" d="M211.243,44.778c44.464,0,86.268,17.315,117.709,48.757,31.441,31.441,48.757,73.244,48.757,117.709s-17.315,86.268-48.757,117.709c-31.441,31.441-73.244,48.757-117.709,48.757s-86.268-17.315-117.709-48.757c-31.441-31.441-48.757-73.244-48.757-117.709s17.315-86.268,48.757-117.709c31.441-31.441,73.244-48.757,117.709-48.757M211.243,41.778c-93.593,0-169.465,75.872-169.465,169.465s75.872,169.465,169.465,169.465,169.465-75.872,169.465-169.465S304.836,41.778,211.243,41.778h0Z"/></g></svg>